<svg version="1.1" id="Layer_1" xmlns="http://www.w3.org/2000/svg" xmlns:xlink="http://www.w3.org/1999/xlink" x="0px" y="0px"
	 width="100%" viewBox="0 0 500 500" enable-background="new 0 0 500 500" xml:space="preserve">
<path fill="#000101" opacity="1.000000" stroke="none" 
	d="
M305.000000,501.000000 
	C204.666687,501.000000 104.833359,500.977478 5.000185,501.095551 
	C1.576228,501.099609 0.903036,500.423828 0.905300,497.000000 
	C1.013778,333.000092 1.013757,169.000137 0.905338,5.000253 
	C0.903075,1.576967 1.575774,0.903020 4.999870,0.905285 
	C168.999756,1.013775 332.999725,1.013760 496.999634,0.905354 
	C500.422638,0.903091 501.096985,1.575418 501.094727,4.999751 
	C500.986206,168.999634 500.986237,332.999603 501.094604,496.999512 
	C501.096893,500.422272 500.425842,501.103821 497.000214,501.096771 
	C433.167023,500.964935 369.333466,501.000000 305.000000,501.000000 
z"/>
<path fill="#969998" opacity="1.000000" stroke="none" 
	d="
M232.191895,382.359558 
	C224.274612,392.636200 214.418488,399.326263 201.808502,401.282104 
	C197.715683,401.916901 195.540344,403.714996 193.761459,407.432587 
	C187.094193,421.366089 179.974060,435.082214 173.174957,448.953979 
	C172.092133,451.163177 171.058228,451.602325 168.989777,450.470184 
	C164.622543,448.079865 160.227829,445.737152 155.798386,443.464569 
	C154.193207,442.641022 154.113953,441.733856 155.014328,440.315399 
	C160.626221,431.474365 166.229965,422.627655 171.749588,413.729034 
	C172.716721,412.169861 174.078766,412.140472 175.572647,411.936615 
	C179.416641,411.412018 180.573502,408.756653 179.886185,405.434113 
	C179.146652,401.859131 176.256668,400.732361 172.991470,401.307922 
	C169.709045,401.886505 167.872818,404.316498 168.944977,407.503632 
	C169.903412,410.352692 168.835373,412.117126 167.459290,414.262085 
	C162.612259,421.817383 157.840958,429.424316 153.212906,437.115173 
	C151.860397,439.362793 150.997437,440.487579 148.470703,438.287994 
	C145.219818,435.457977 141.753372,432.891907 138.652451,429.856415 
	C136.828308,428.070740 136.693970,426.917358 138.401031,424.937561 
	C148.930756,412.725433 159.335678,400.405731 170.058777,387.986206 
	C175.304779,387.099823 180.029388,388.964233 184.909714,389.252319 
	C187.038162,389.378021 189.262543,389.846893 191.238541,390.597504 
	C198.613831,393.399048 204.104065,390.357605 209.145889,385.386810 
	C210.568146,383.984589 212.067963,382.663025 213.552399,380.820007 
	C215.826569,377.517334 217.454727,374.288025 218.826859,370.512817 
	C219.706711,365.275452 220.546265,360.410614 221.562683,355.169617 
	C222.017410,352.339630 222.171387,349.819611 224.337265,347.679993 
	C229.301712,347.232910 233.896957,345.821991 238.519150,347.351196 
	C240.743195,348.087006 241.387573,346.462189 242.191910,344.976044 
	C242.689774,344.056183 243.439331,343.357117 244.603973,343.844879 
	C245.541794,344.237640 245.477112,345.159698 245.476608,345.971893 
	C245.474609,349.127106 245.571365,352.283173 245.238983,355.779968 
	C246.240646,362.005798 243.921814,366.742065 239.980499,370.792236 
	C237.709259,373.126312 237.175583,376.415253 234.850739,379.031006 
	C232.862534,379.439606 233.070557,381.111969 232.191895,382.359558 
z"/>
<path fill="#E5E7E7" opacity="1.000000" stroke="none" 
	d="
M200.634323,241.769348 
	C200.805450,242.551178 200.715637,243.099411 200.299164,244.270203 
	C199.535645,246.799316 199.098816,248.705902 198.324265,251.271027 
	C197.986542,251.929596 198.021774,251.978745 197.996124,251.994751 
	C197.849411,252.156219 197.728317,252.301666 197.705597,252.713379 
	C197.399445,254.542831 196.994934,256.105988 196.284698,258.272339 
	C195.889786,259.440247 195.800598,260.004883 195.439713,260.907288 
	C195.168015,261.245056 195.363342,261.672638 195.179291,261.818848 
	C194.995224,261.965027 195.013565,261.990295 195.000244,261.998413 
	C193.058655,263.310791 192.460739,261.626831 191.603897,260.506805 
	C190.946930,259.648010 190.742584,258.044891 189.305359,258.345581 
	C188.058243,258.606537 187.983673,260.082306 187.616119,261.130402 
	C187.184525,262.361115 186.743134,263.593292 186.390442,265.217224 
	C185.753632,267.905975 184.598572,270.069519 184.142517,272.834137 
	C183.315186,275.851379 182.627945,278.519135 182.276443,281.660248 
	C181.506790,284.407196 180.527817,286.608643 178.281403,288.507263 
	C176.185898,289.336334 174.596771,289.220856 173.120392,287.374146 
	C173.632324,284.224976 174.309525,281.466003 175.166153,278.356323 
	C176.285904,276.676727 176.558807,275.159027 176.806122,273.312195 
	C177.013458,273.048981 176.984406,273.014893 177.004364,273.004761 
	C177.543854,272.474670 177.498306,271.737854 177.794113,270.774628 
	C179.039246,266.063202 180.236465,261.690826 181.734100,256.759399 
	C182.125046,255.613220 182.215576,255.026093 182.583359,254.084061 
	C182.860626,253.729156 182.602554,253.318344 182.805664,253.185699 
	C183.124969,252.195618 183.241165,251.338165 183.597092,250.114792 
	C183.836807,249.748856 183.605453,249.307587 183.796402,249.147583 
	C185.490433,243.770828 186.765472,238.474655 188.548462,233.355377 
	C191.437134,225.061432 198.188538,221.633560 206.647125,220.162018 
	C207.201202,220.259445 207.375793,220.327866 207.776245,220.228577 
	C208.002106,220.060898 208.065109,219.980011 208.323105,219.977478 
	C209.436096,219.637497 210.291092,219.300018 211.898041,218.944763 
	C213.750290,218.571075 214.850586,218.215195 216.389450,217.896667 
	C216.985168,217.828308 217.142334,217.722595 217.583206,217.631729 
	C241.501007,212.071716 265.136444,206.502640 288.767792,200.916199 
	C292.644135,199.999847 296.528778,199.100800 300.360962,198.021133 
	C303.610413,197.105621 305.900726,197.801910 307.026001,201.550903 
	C307.048309,205.061493 308.948059,208.191605 306.992798,211.667664 
	C305.701508,212.664474 304.821533,212.337387 303.852966,211.203796 
	C303.151978,209.020355 302.224670,207.421631 300.443970,206.094269 
	C298.860016,207.196167 297.304047,207.620621 295.343262,208.112335 
	C286.891815,209.965698 278.911469,212.068985 270.486206,214.017822 
	C265.938324,214.833084 261.845703,215.856674 257.387268,217.062653 
	C252.590210,217.966064 248.181488,218.787445 243.460449,220.039200 
	C230.382217,222.451782 218.025269,226.258453 205.360413,228.724823 
	C203.267273,229.132431 201.444778,230.465942 199.530975,232.149689 
	C198.887146,232.734879 198.494827,233.044693 198.110138,233.363937 
	C196.281754,234.881073 194.384705,236.489990 194.940842,239.166840 
	C195.589752,242.290192 198.718491,240.353638 200.634323,241.769348 
z"/>
<path fill="#8D8F8D" opacity="1.000000" stroke="none" 
	d="
M253.299622,341.284729 
	C253.146149,331.851837 253.065018,322.696594 253.369843,313.554230 
	C253.560043,307.849640 260.196808,301.420349 265.862885,300.842010 
	C268.178955,300.605621 270.546021,300.534973 272.788300,299.979187 
	C277.333191,298.852600 279.803192,300.531097 281.468689,304.840881 
	C282.405243,307.264526 282.576508,308.915497 281.199707,311.220917 
	C277.261017,317.816193 275.413513,324.936462 276.709442,332.723358 
	C277.610321,338.136688 280.256134,342.305939 284.941833,345.642975 
	C282.851685,350.939575 281.244415,351.255829 277.619171,347.145477 
	C276.649719,346.046326 276.109772,345.845459 274.792023,346.550507 
	C267.432312,350.488373 258.609955,348.370453 253.299622,341.284729 
z"/>
<path fill="#959898" opacity="1.000000" stroke="none" 
	d="
M225.236496,403.823212 
	C225.237137,405.779541 224.208954,406.753693 223.297989,407.658142 
	C211.958801,418.915833 205.896515,433.382172 199.057953,447.378113 
	C198.985107,447.527191 198.928802,447.684265 198.859055,447.834930 
	C193.436310,459.550140 193.445312,459.489532 181.340561,455.112061 
	C179.369980,454.399414 179.031158,453.738129 179.905472,451.977875 
	C186.620956,438.457703 193.300201,424.919586 199.987411,411.385406 
	C200.678787,409.986145 201.562668,409.081970 203.305984,408.817474 
	C209.956650,407.808502 215.938675,404.902008 222.212372,401.829834 
	C224.044174,401.337402 224.814194,402.144836 225.236496,403.823212 
z"/>
<path fill="#A0A3A2" opacity="1.000000" stroke="none" 
	d="
M354.240723,259.268372 
	C347.778625,268.717102 341.451477,277.770569 334.841614,287.228577 
	C332.663269,282.719391 333.292938,279.196442 334.768219,275.360199 
	C337.563354,268.092010 339.769226,260.599121 342.364166,253.250519 
	C342.978058,251.512085 342.927246,250.099426 342.028473,248.537354 
	C339.379761,243.933701 336.804626,239.287704 334.122742,234.319794 
	C338.017426,227.722794 345.091309,225.319809 351.609619,228.014557 
	C358.428040,230.833389 361.804138,237.319031 360.019012,244.599838 
	C358.794098,249.595856 357.197815,254.488037 354.240723,259.268372 
z"/>
<path fill="#8E8F8E" opacity="1.000000" stroke="none" 
	d="
M245.191116,355.731140 
	C245.056717,352.350220 245.056717,348.578064 245.056717,344.705200 
	C244.099884,344.848999 243.545013,344.884399 243.543060,344.939484 
	C243.374008,349.692078 241.831299,351.567017 237.069489,348.611023 
	C233.381317,346.321503 229.323990,350.346588 225.177277,348.167908 
	C223.452118,346.552551 223.447342,344.798950 223.489868,342.609619 
	C223.257156,338.446106 224.293777,334.925446 225.353012,330.983307 
	C225.190048,325.355957 227.040466,320.568207 228.716370,315.360229 
	C233.272644,314.719696 237.575241,314.556427 241.836777,314.048676 
	C245.162354,313.652435 246.116882,314.847260 246.021469,318.115021 
	C245.659271,330.519531 245.537308,342.931030 245.191116,355.731140 
z"/>
<path fill="#919594" opacity="1.000000" stroke="none" 
	d="
M252.982086,341.398407 
	C257.374847,343.377625 261.384827,346.212830 266.368530,347.398804 
	C269.980560,348.258362 272.334778,347.877258 274.365112,344.580750 
	C275.789673,342.267761 278.272888,342.503937 278.701080,345.136932 
	C279.737488,351.509583 281.995453,348.815979 284.802612,346.106995 
	C286.918488,346.461151 287.521698,347.291168 286.478668,349.197388 
	C281.401031,358.477112 275.407318,366.889130 265.472656,372.178589 
	C254.569717,370.536835 254.256073,370.205902 253.132355,359.759583 
	C252.919571,357.781555 253.054565,355.796936 252.957535,353.394989 
	C252.894806,352.225220 252.851181,351.477173 252.903687,350.364441 
	C253.984085,348.600952 253.352509,347.042847 253.249313,345.286255 
	C253.007065,343.943085 252.953552,342.869141 252.982086,341.398407 
z"/>
<path fill="#ABADAB" opacity="1.000000" stroke="none" 
	d="
M219.802383,370.664551 
	C219.213684,374.518707 217.221649,377.476166 215.262177,380.784515 
	C211.501389,383.658264 207.537689,382.115417 203.850296,381.975067 
	C195.593002,381.660858 187.532211,379.645844 179.152283,378.033875 
	C178.884857,377.388428 178.965057,377.157623 179.333878,376.878662 
	C179.601242,374.264984 177.533859,373.660339 175.883224,372.655182 
	C173.905136,371.450653 171.784714,370.330048 171.630661,367.183838 
	C173.848846,361.760712 177.763657,358.849609 183.629837,358.066711 
	C193.529083,363.532837 203.677124,367.122345 214.587585,368.472626 
	C216.403137,368.697327 218.242233,368.897186 219.802383,370.664551 
z"/>
<path fill="#B5B8B6" opacity="1.000000" stroke="none" 
	d="
M250.801346,50.312744 
	C261.286011,53.282173 265.345123,61.371819 267.059570,71.173637 
	C269.242279,83.652672 266.207916,95.876984 265.036743,108.593109 
	C262.084595,110.437988 260.841980,108.665810 259.732056,106.055969 
	C259.838165,100.766777 256.557892,98.734734 252.426666,96.883408 
	C250.453003,90.392509 252.502151,84.360695 252.966629,78.294518 
	C253.549225,70.685867 255.004974,63.113815 252.063751,55.352554 
	C251.724930,55.100132 251.869629,55.044613 251.886810,55.120178 
	C251.596512,54.589344 251.519974,53.904415 251.004547,53.056793 
	C250.755219,52.829647 250.746231,52.723629 250.797882,52.710930 
	C250.700058,52.055893 250.605896,51.405540 250.801346,50.312744 
z"/>
<path fill="#E7E9E6" opacity="1.000000" stroke="none" 
	d="
M220.291931,261.476135 
	C219.592957,261.923523 219.178452,262.337463 218.428528,262.923706 
	C218.007050,263.258972 217.920990,263.421906 217.591339,263.715332 
	C216.645737,264.905548 215.440887,265.667816 215.168365,267.344269 
	C213.242737,268.942566 214.820755,270.875153 213.961548,272.701538 
	C209.801010,275.799103 206.282959,275.555511 203.012695,272.073944 
	C201.673340,270.648041 200.522110,269.041260 198.966339,267.283112 
	C201.560867,257.136841 202.960556,246.571350 213.619415,240.950989 
	C214.746124,241.343018 215.300522,242.027481 215.331940,242.858932 
	C215.463226,246.332916 217.479340,247.054169 220.580276,247.158539 
	C227.041214,247.375961 229.816544,252.873444 226.249420,258.711975 
	C224.525726,259.580688 223.051788,260.200684 221.233292,260.891541 
	C220.784622,261.122528 220.680511,261.282623 220.291931,261.476135 
z"/>
<path fill="#E7E9E6" opacity="1.000000" stroke="none" 
	d="
M271.597046,237.820572 
	C282.805756,237.850494 293.790955,237.926437 304.737305,237.310791 
	C309.874268,237.021881 307.760193,241.801758 309.987335,243.670074 
	C309.690491,246.778168 309.383362,249.514206 305.118774,247.359100 
	C304.825592,247.101822 304.914001,247.144791 304.867004,247.159225 
	C304.732239,246.827988 304.626831,246.487747 304.257660,246.054962 
	C303.839203,245.902969 303.668884,245.848312 303.243774,245.877899 
	C295.991852,247.651917 288.895752,246.563385 281.844757,246.663483 
	C280.213196,246.686630 278.560944,246.474274 276.445587,246.515167 
	C270.041382,247.013840 264.104980,246.971054 257.703796,246.525970 
	C252.922424,246.966248 248.600616,246.815613 243.814941,246.582916 
	C237.222839,245.928055 235.725555,244.592911 235.748474,239.117889 
	C242.733246,238.181686 249.445328,238.698380 256.593445,238.377289 
	C259.739258,238.224258 262.438904,238.169388 265.589111,238.145386 
	C267.829468,238.132553 269.532410,237.309738 271.597046,237.820572 
z"/>
<path fill="#B2B4B1" opacity="1.000000" stroke="none" 
	d="
M220.260742,370.708771 
	C214.634888,370.690948 209.665543,367.680359 204.064514,368.865723 
	C202.381531,369.221893 200.967300,367.918640 199.537354,367.052063 
	C196.134491,364.989899 192.831070,362.732697 188.516235,362.937073 
	C185.843765,363.063629 185.130630,360.676910 184.058716,358.453857 
	C187.700668,356.745575 191.394241,355.396332 195.442047,353.987854 
	C198.983215,350.144806 202.523407,348.929230 206.949814,352.061279 
	C208.607574,353.234344 210.686981,353.164062 212.707352,352.957916 
	C216.031525,352.618683 219.294434,352.834381 222.629028,354.721924 
	C222.135208,360.125580 221.333725,365.274170 220.260742,370.708771 
z"/>
<path fill="#939797" opacity="1.000000" stroke="none" 
	d="
M167.120285,384.753967 
	C156.990952,397.465668 146.686905,409.813629 136.302521,422.093597 
	C135.401398,423.159180 134.088730,425.478546 132.491455,423.030914 
	C131.089157,420.882050 126.844147,419.410370 129.981049,415.702820 
	C140.162857,403.668671 150.379257,391.663788 160.904053,379.466125 
	C163.444550,380.622803 164.938354,382.773041 167.120285,384.753967 
z"/>
<path fill="#C7CAC9" opacity="1.000000" stroke="none" 
	d="
M290.641174,266.664551 
	C295.273682,265.076447 297.280457,266.894867 298.846863,271.028534 
	C302.955322,281.870453 307.446869,292.575348 312.087158,303.203247 
	C313.736572,306.980957 314.291870,310.171387 311.438080,313.569366 
	C310.078156,315.188629 309.247589,317.252502 307.969849,319.367493 
	C303.919708,318.824860 305.985168,316.175873 306.077637,314.173157 
	C306.158142,312.428802 308.248260,310.329407 304.813477,309.029114 
	C301.580597,306.362213 301.085449,302.587006 299.526947,299.380341 
	C296.875031,293.923889 294.575195,288.306458 292.104034,282.376251 
	C292.734802,280.036560 293.045990,278.155182 290.407074,276.927612 
	C284.855499,274.520813 284.950958,271.744720 290.641174,266.664551 
z"/>
<path fill="#D6D7D5" opacity="1.000000" stroke="none" 
	d="
M251.765152,55.556831 
	C256.580902,58.928356 256.070129,64.289116 255.628189,69.491516 
	C254.874191,78.367073 253.876144,87.221893 252.988312,96.533508 
	C252.336197,99.740982 249.793030,101.791969 249.886597,105.243652 
	C244.298172,111.925690 241.641800,112.265953 234.608032,107.172546 
	C234.380966,99.965652 236.011871,93.419052 238.636337,86.768639 
	C245.694916,85.365341 249.175568,81.358406 250.276306,74.628883 
	C251.288559,68.440453 253.101257,62.372730 251.765152,55.556831 
z"/>
<path fill="#ECEDEB" opacity="1.000000" stroke="none" 
	d="
M223.869781,269.348602 
	C224.520325,267.906921 225.571640,267.571350 226.889099,267.119568 
	C238.782654,265.042633 250.452194,266.347504 262.523926,266.096985 
	C265.878448,271.093353 270.705658,275.009583 270.735413,281.578796 
	C262.256439,283.652313 254.068619,282.737396 245.477493,282.309021 
	C239.745590,278.273224 233.878433,275.485321 227.548203,273.621948 
	C225.599411,273.048309 223.826172,272.194397 223.869781,269.348602 
z"/>
<path fill="#BABDBB" opacity="1.000000" stroke="none" 
	d="
M269.784180,213.250000 
	C277.838776,210.286255 285.981232,208.616592 294.517975,206.873047 
	C297.317505,208.843506 296.115570,211.768234 296.864807,214.582397 
	C296.550873,216.139359 296.207275,217.307068 295.653198,218.780548 
	C295.431366,219.270630 295.420074,219.454926 295.211884,219.834015 
	C294.993683,220.354904 295.047089,220.708054 294.940155,221.003128 
	C291.583527,230.266907 291.581543,230.278534 281.744904,230.584229 
	C278.131226,230.696548 274.515228,230.734177 270.441467,230.701828 
	C269.092010,227.878296 271.393311,228.021271 272.802521,227.675644 
	C275.948334,226.904083 276.172607,225.560486 274.155884,223.212479 
	C271.772125,220.437119 269.378845,217.597855 269.784180,213.250000 
z"/>
<path fill="#A2A4A3" opacity="1.000000" stroke="none" 
	d="
M178.651031,377.769287 
	C186.250992,377.759705 193.375015,379.200500 200.578674,380.312500 
	C204.839844,380.970306 209.575958,381.270325 214.555695,380.996857 
	C211.447174,386.107880 206.841415,389.951813 201.290695,392.768524 
	C196.495911,395.201630 192.415833,391.614716 187.930496,391.354279 
	C184.368393,391.147430 180.948318,389.286865 177.202866,390.380524 
	C174.610062,391.137604 173.826111,387.193329 170.756470,387.886780 
	C170.896545,387.032227 171.457642,386.213867 172.304657,385.155548 
	C172.590607,384.915588 172.559753,384.434479 172.798950,384.404633 
	C174.226959,381.723724 176.724915,380.148285 178.651031,377.769287 
z"/>
<path fill="#A8ACAA" opacity="1.000000" stroke="none" 
	d="
M243.681610,280.824768 
	C252.682495,281.069244 261.377136,281.078369 270.540405,281.060425 
	C276.075867,278.005066 281.296417,278.661469 286.893250,280.768555 
	C283.859589,288.559448 278.779388,292.107178 270.076294,293.535645 
	C259.484314,295.274078 252.258636,291.887756 245.404404,285.060822 
	C244.468811,284.128967 243.372849,283.358154 242.181061,282.224060 
	C241.891602,280.904663 242.512650,280.624542 243.681610,280.824768 
z"/>
<path fill="#D9DCDA" opacity="1.000000" stroke="none" 
	d="
M198.513992,267.145020 
	C200.472427,267.014893 202.123703,267.087128 202.863693,269.071869 
	C204.774323,274.196442 208.712296,274.169342 213.444763,272.996277 
	C211.924316,280.132202 210.028259,287.278717 207.997009,294.708344 
	C205.321655,296.832458 203.626617,295.181366 201.700989,293.265991 
	C200.802490,291.980957 199.841965,291.279053 198.735733,290.226440 
	C197.471466,286.445312 199.799728,283.341644 200.004608,279.321381 
	C197.958893,282.522736 198.561417,286.152771 195.550659,288.408173 
	C194.983810,288.527740 194.749039,288.524811 194.190933,288.385345 
	C193.622620,281.001953 186.898132,278.443695 183.149597,273.317200 
	C182.551331,270.298798 184.105957,268.123566 184.965561,265.383728 
	C187.894379,263.375610 190.687210,263.420654 193.633438,265.724884 
	C194.211716,267.609039 192.056717,269.966461 195.242416,270.709137 
	C198.191177,271.396545 197.493713,268.702179 198.513992,267.145020 
z"/>
<path fill="#E2E4E1" opacity="1.000000" stroke="none" 
	d="
M235.698257,238.965729 
	C236.371201,243.107742 238.485336,244.960129 242.632339,245.006042 
	C244.950989,247.441620 246.925949,249.886841 247.889389,252.875656 
	C248.522156,254.838654 248.035233,256.764130 246.270401,258.612396 
	C239.637039,258.971161 233.281189,259.042999 226.462494,259.037750 
	C227.352371,255.491409 227.497543,252.277328 224.341705,249.553360 
	C223.591400,248.905716 223.090073,248.221664 221.926071,248.201904 
	C214.094559,248.068985 214.095047,248.040176 214.004456,241.248535 
	C214.449951,240.599335 214.930481,240.275284 215.710907,239.999115 
	C216.195068,240.147461 216.379333,240.247955 216.745605,240.091522 
	C217.427261,239.571594 217.926926,239.308578 218.715698,239.102844 
	C220.469498,239.993073 221.933655,240.834106 223.784225,239.266632 
	C224.018753,239.059616 223.950623,239.031342 223.958679,238.995346 
	C227.745148,238.017990 231.571854,238.648483 235.698257,238.965729 
z"/>
<path fill="#939797" opacity="1.000000" stroke="none" 
	d="
M157.232758,377.676575 
	C147.977463,388.987366 138.983490,400.018555 129.788498,410.879517 
	C128.745193,412.111847 127.425133,415.731354 125.107941,413.059052 
	C123.172775,410.827240 119.531609,408.334534 123.103256,404.195648 
	C130.574280,395.538055 137.761002,386.635162 145.363602,377.674835 
	C148.061981,377.730164 149.423584,375.752167 151.306931,374.883667 
	C154.092957,373.598846 156.794785,373.051361 157.232758,377.676575 
z"/>
<path fill="#A6AAAB" opacity="1.000000" stroke="none" 
	d="
M303.398438,211.111389 
	C304.282196,211.230515 304.865326,211.607788 305.676697,212.121948 
	C308.885040,213.878082 309.231415,217.265274 311.094818,220.055542 
	C313.257812,224.317734 315.806793,227.946869 318.115051,232.122849 
	C320.758179,238.016769 324.225586,243.016632 327.702087,248.419098 
	C328.650208,251.650467 330.750641,253.305756 333.607544,254.719574 
	C332.150970,259.816620 330.459473,264.653992 328.352936,270.678223 
	C324.740540,261.236908 321.500092,252.778229 318.273926,244.314102 
	C318.037964,243.695114 317.934387,243.026855 317.720764,242.397980 
	C313.626434,230.346222 313.623993,230.204224 300.825348,230.287292 
	C296.939850,230.312515 296.171051,229.290054 297.615387,225.799789 
	C299.582001,221.047287 301.282959,216.184860 303.398438,211.111389 
z"/>
<path fill="#D6D7D5" opacity="1.000000" stroke="none" 
	d="
M198.062653,232.348862 
	C201.375336,225.903427 208.050385,226.806641 213.325974,225.346161 
	C221.372635,223.118561 229.610382,221.484055 237.702332,219.316391 
	C239.108398,218.939728 240.652649,219.078873 242.557358,218.977142 
	C244.316864,219.375977 245.119003,220.475403 246.082001,221.358215 
	C250.647476,225.543472 250.648819,225.644440 246.249237,230.632294 
	C234.984100,231.471848 223.928421,230.806473 212.476608,232.067245 
	C209.090057,230.829636 206.517288,231.677261 204.071701,233.352768 
	C201.912125,234.832352 199.831985,235.433029 198.062653,232.348862 
z"/>
<path fill="#919594" opacity="1.000000" stroke="none" 
	d="
M257.814270,169.731598 
	C257.163208,179.236679 256.370941,188.477188 255.438217,197.703491 
	C255.194092,200.118454 245.617020,204.216141 244.037186,202.661118 
	C243.081863,201.720810 243.788666,200.420883 243.920914,199.331818 
	C244.999084,190.452728 246.160400,181.583725 247.491547,172.385101 
	C249.555984,170.386490 250.769669,168.283493 251.880463,166.057678 
	C253.338562,163.135895 255.462204,162.284531 258.475281,164.886200 
	C258.604065,166.225388 258.488739,167.243835 258.223572,168.619110 
	C257.922760,169.137863 257.771698,169.299789 257.814270,169.731598 
z"/>
<path fill="#E5E7E7" opacity="1.000000" stroke="none" 
	d="
M238.569092,86.413147 
	C238.193207,93.205917 236.810349,99.756042 235.032684,106.627106 
	C236.115067,109.126175 235.634583,111.302368 234.874908,113.249313 
	C233.348969,117.159996 233.221222,121.248123 232.689758,125.685654 
	C229.706238,130.354675 229.340302,135.566269 227.154755,140.486206 
	C226.811844,141.882721 226.726059,143.000443 226.470520,144.505478 
	C225.995224,145.377899 225.581192,145.738907 224.659271,146.105652 
	C222.828491,146.480484 221.460464,146.351044 219.932724,145.240662 
	C220.783569,139.541824 221.902817,134.166016 223.189041,128.409271 
	C223.415390,127.476280 223.687866,127.008446 224.025375,126.277084 
	C224.317230,124.878288 224.529999,123.737450 224.860840,122.174728 
	C224.839539,121.629639 224.700134,121.506439 224.808044,121.253967 
	C227.475784,110.857246 230.105301,100.632347 232.208588,90.300331 
	C232.994446,86.439926 234.658249,85.381081 238.569092,86.413147 
z"/>
<path fill="#E2E4E1" opacity="1.000000" stroke="none" 
	d="
M243.947815,280.703339 
	C243.445602,281.204315 242.903351,281.348541 242.186035,281.714050 
	C240.166046,282.349518 237.994583,281.239349 236.472641,283.486237 
	C236.530182,287.130829 236.066772,290.286285 233.873505,293.328186 
	C232.216476,294.117554 230.851151,293.971497 229.703079,293.275574 
	C225.047699,290.453552 220.161224,288.087494 215.128204,285.362305 
	C215.617325,278.573181 218.197632,273.173553 223.638580,269.029541 
	C224.728455,272.074677 227.632156,271.869019 229.825577,272.817780 
	C234.723694,274.936493 240.400650,275.622467 243.947815,280.703339 
z"/>
<path fill="#8E8F8E" opacity="1.000000" stroke="none" 
	d="
M292.251282,340.682556 
	C286.180573,338.735138 283.514130,334.411163 283.799194,328.266846 
	C283.890472,326.299377 284.139008,324.297760 284.640991,322.397736 
	C287.318726,312.262909 287.881775,311.863770 298.131348,311.406067 
	C299.601044,311.340424 301.058441,310.999207 302.728516,310.412720 
	C303.339233,309.662598 303.816895,309.483795 304.739380,309.638397 
	C306.646637,311.774384 305.547302,313.575714 304.603546,315.321564 
	C302.308136,319.567810 300.184265,323.923157 297.692749,328.041687 
	C295.332581,331.943024 294.026825,336.188293 292.251282,340.682556 
z"/>
<path fill="#959898" opacity="1.000000" stroke="none" 
	d="
M252.800140,353.352753 
	C254.729065,356.045471 254.762955,359.651703 254.783264,362.878998 
	C254.810822,367.260132 256.409576,369.142883 260.465302,369.714539 
	C262.023438,369.934235 263.833344,369.895813 264.970215,371.964172 
	C255.958267,379.672913 247.224487,387.630615 237.088211,393.771423 
	C235.863617,394.513336 234.995499,395.843689 233.683884,397.039490 
	C231.979599,397.716888 230.865097,397.617065 230.768585,395.358429 
	C236.835083,388.183014 242.187866,381.072510 247.478455,373.851440 
	C252.160782,367.460602 252.496033,360.826660 252.800140,353.352753 
z"/>
<path fill="#CDD0CD" opacity="1.000000" stroke="none" 
	d="
M206.455170,317.306763 
	C207.514908,311.812225 208.853378,306.630798 210.418610,301.167725 
	C213.847763,299.294678 216.973480,299.670624 220.063492,301.233368 
	C223.707733,303.076416 227.674530,304.314697 231.089844,307.324524 
	C231.518219,308.139740 231.559021,308.649261 231.185852,309.471924 
	C228.909836,310.573212 228.740631,312.540527 228.146667,314.576172 
	C228.463165,319.595612 225.966461,321.376526 221.595108,321.749695 
	C216.065292,322.221863 210.998169,321.485352 206.455170,317.306763 
z"/>
<path fill="#BABDBB" opacity="1.000000" stroke="none" 
	d="
M222.998505,354.604431 
	C216.304031,353.454620 208.944382,356.850372 202.779999,351.624420 
	C200.055191,349.314423 199.177917,354.526642 196.175812,353.934998 
	C197.288101,348.698944 198.779892,343.469269 200.540619,337.968292 
	C208.482147,339.824158 216.534149,339.565369 224.575012,341.702637 
	C224.906250,343.669525 224.911804,345.358490 224.907181,347.464783 
	C223.385498,349.738586 224.221008,352.273895 222.998505,354.604431 
z"/>
<path fill="#B7BCBB" opacity="1.000000" stroke="none" 
	d="
M354.419373,259.486237 
	C354.176727,254.906036 356.579315,250.789566 357.930908,246.405548 
	C359.827179,240.254913 358.802521,234.333511 354.441620,231.031570 
	C349.618256,227.379471 343.702118,227.440216 338.351501,231.184341 
	C337.134277,232.036102 335.893433,232.854065 334.354156,233.834442 
	C331.120972,231.168076 331.560303,229.414215 335.253967,227.401855 
	C339.943115,224.847153 344.310242,221.664658 349.985779,222.315506 
	C362.254150,223.722382 368.914978,237.424683 362.535492,248.377686 
	C360.292023,252.229553 357.353882,255.676819 354.419373,259.486237 
z"/>
<path fill="#B7BCBB" opacity="1.000000" stroke="none" 
	d="
M170.122559,344.396118 
	C171.033768,340.237061 171.997177,336.453735 173.164764,332.324829 
	C175.446411,329.769592 177.186859,327.136902 180.755356,326.438812 
	C183.834854,330.095001 187.212616,331.531555 191.888382,329.757446 
	C192.786591,330.511688 192.996536,331.276520 192.915192,332.351318 
	C192.876663,332.575775 192.819885,332.942932 192.819885,332.942932 
	C192.819885,332.942932 193.223297,332.954651 193.504944,332.906860 
	C194.913559,332.736359 195.982758,332.879211 197.140686,333.830627 
	C196.395752,337.924561 195.448471,341.732361 194.240616,346.221649 
	C193.941910,347.401428 193.903793,347.899719 193.718307,348.745605 
	C193.538269,349.508850 193.489441,349.922546 193.192108,350.543457 
	C192.490601,351.095612 192.021606,351.438629 190.943176,351.916443 
	C189.798996,352.346649 189.264282,352.642059 188.266556,352.941345 
	C187.629211,353.090240 187.454865,353.235260 186.960968,353.263733 
	C186.641418,353.147186 186.373779,353.503021 186.151184,353.507385 
	C184.933762,352.400696 184.652725,350.971497 185.363449,349.817413 
	C187.724533,345.983398 185.445267,342.030212 185.848145,338.152161 
	C186.032013,336.382233 184.332108,337.884644 183.381378,337.189545 
	C178.794922,337.216187 179.732483,341.275879 178.418808,343.648743 
	C177.657059,345.024719 177.599854,346.790710 177.065506,348.688049 
	C172.862793,350.454620 171.643570,347.414368 170.122559,344.396118 
z"/>
<path fill="#D9DCDA" opacity="1.000000" stroke="none" 
	d="
M231.238174,307.725342 
	C228.393204,306.734802 225.876831,305.517029 223.380615,304.259216 
	C219.605850,302.357208 215.663223,301.093811 211.022827,300.940125 
	C211.949280,295.790619 213.253159,290.695221 214.773346,285.296814 
	C221.817169,285.496918 226.542694,290.605377 232.880753,293.052246 
	C235.244080,295.733673 234.195679,298.469269 233.500671,301.602692 
	C233.210266,303.970367 232.746872,305.846252 231.238174,307.725342 
z"/>
<path fill="#E2E4E1" opacity="1.000000" stroke="none" 
	d="
M287.473633,280.955750 
	C282.130219,281.133636 277.035339,281.114746 271.474762,281.064636 
	C270.888763,278.565125 268.871643,277.391083 267.379517,275.933197 
	C265.128265,273.733704 263.718781,271.275513 263.960938,267.658691 
	C266.258331,265.517334 268.975250,266.029388 271.557159,266.028809 
	C277.032318,266.027557 282.511108,265.810852 288.431213,266.302551 
	C289.342102,266.381989 289.805511,266.320068 290.609283,266.354553 
	C291.014587,267.688934 290.593048,268.644745 289.583069,269.453705 
	C286.725311,271.742676 287.016144,274.108185 289.783020,276.706146 
	C289.231140,278.235901 288.476654,279.497437 287.473633,280.955750 
z"/>
<path fill="#B5B8B6" opacity="1.000000" stroke="none" 
	d="
M321.186646,297.221069 
	C320.681213,298.634552 320.250885,299.661865 319.390778,301.715210 
	C315.307678,291.952118 311.589905,283.074036 307.883179,274.191345 
	C306.993256,272.058716 306.436462,269.721405 305.213074,267.806213 
	C301.851410,262.543671 301.410431,257.489349 305.712524,252.203613 
	C308.634521,251.906616 308.950806,254.129990 309.605164,255.829575 
	C311.005615,259.467102 312.447693,263.086884 314.050934,267.044800 
	C316.003601,272.126648 317.269989,277.073395 319.822449,281.914886 
	C320.272888,282.917236 320.436676,283.639191 320.913757,284.638916 
	C321.227905,285.454376 321.370300,285.934967 321.631897,286.777466 
	C323.800842,290.482697 322.948151,293.681000 321.186646,297.221069 
z"/>
<path fill="#A2A4A3" opacity="1.000000" stroke="none" 
	d="
M305.260437,309.588318 
	C304.602936,309.912750 304.124695,309.928223 303.290985,309.991821 
	C294.237518,309.496887 288.181641,305.601471 285.575287,296.880646 
	C285.092224,295.264252 285.099152,294.154846 285.865875,292.781433 
	C287.786652,289.340698 289.614410,285.848053 291.769104,282.190857 
	C293.662537,282.758484 294.406403,284.114410 295.078491,285.713318 
	C298.146179,293.011597 301.350861,300.252319 304.765228,307.749329 
	C305.355927,308.354340 305.494446,308.785797 305.260437,309.588318 
z"/>
<path fill="#A0A3A2" opacity="1.000000" stroke="none" 
	d="
M258.840271,164.850800 
	C255.647263,164.232315 252.971268,163.524948 252.764969,168.416870 
	C252.679474,170.444336 250.321777,171.262558 248.073700,172.008804 
	C247.690918,171.619263 247.695175,171.179977 247.818008,170.430450 
	C247.828232,169.931732 247.719864,169.743286 247.811371,169.297180 
	C248.006287,168.583832 248.001343,168.128113 248.106689,167.346527 
	C248.555984,166.547546 248.845901,166.056763 248.706924,165.162933 
	C248.566803,163.852341 248.666977,162.714050 249.699097,162.327789 
	C253.072372,161.065308 254.334625,158.633286 253.427628,155.317917 
	C252.535461,152.056763 249.829178,151.332642 246.367722,151.492859 
	C243.737686,147.348816 246.153076,144.218964 248.471100,140.727112 
	C248.959869,139.824524 249.351379,139.269882 249.931580,138.444672 
	C250.274155,138.016434 250.422180,137.854965 250.822784,137.486298 
	C251.780685,136.793381 252.582443,136.439987 253.387115,135.525787 
	C253.795639,135.131287 253.967972,134.977509 254.427002,134.617218 
	C257.197754,132.660461 258.490875,133.636368 259.326813,136.252838 
	C260.282837,139.245117 259.658600,142.394196 260.651184,145.690140 
	C260.799957,147.154434 260.737213,148.313904 260.488953,149.771332 
	C258.828705,150.939087 259.818481,152.337662 259.752869,153.728073 
	C259.608490,157.488098 259.284821,160.991379 258.840271,164.850800 
z"/>
<path fill="#CDD0CD" opacity="1.000000" stroke="none" 
	d="
M256.796326,245.313446 
	C263.042236,245.036560 269.060913,245.028244 275.548645,245.036591 
	C277.023621,246.085815 278.481354,245.929626 279.682343,246.446442 
	C285.095032,248.775665 286.260406,253.581985 282.288239,258.636902 
	C275.968231,258.961975 269.940765,259.027313 263.453491,258.995239 
	C262.001007,255.254318 260.723724,251.800430 257.756073,249.177460 
	C256.792755,248.326050 256.171295,247.041473 256.796326,245.313446 
z"/>
<path fill="#A8ACAA" opacity="1.000000" stroke="none" 
	d="
M232.369354,302.273621 
	C232.438858,299.321350 232.801605,296.627472 233.207428,293.523560 
	C234.102676,290.161591 234.954865,287.209625 236.143890,284.053345 
	C242.447617,287.458435 246.528549,293.206818 251.925369,297.459442 
	C253.309204,298.549866 253.075577,299.593628 252.163330,300.822144 
	C250.694107,302.800659 249.289047,304.826813 247.563080,306.990540 
	C241.768158,307.609985 237.417358,304.431976 232.369354,302.273621 
z"/>
<path fill="#B7BCBB" opacity="1.000000" stroke="none" 
	d="
M228.813736,154.312424 
	C228.550766,150.233032 229.954636,146.580719 230.250290,142.384674 
	C230.535126,141.111481 230.457184,140.161880 231.638519,139.535919 
	C234.534241,137.165588 237.100677,134.840469 239.898209,132.269592 
	C246.396378,130.358231 247.628235,125.859619 247.713257,120.003563 
	C247.771286,116.005470 247.753616,111.660927 250.652405,107.844704 
	C253.727478,107.155670 254.015869,109.047226 253.918930,110.957726 
	C253.584549,117.548462 253.015411,124.134903 252.011597,130.648788 
	C251.192520,135.963898 246.738861,138.808228 243.113998,142.140625 
	C240.731873,144.330582 237.599411,145.968994 237.333511,150.195023 
	C237.155350,151.135742 237.043976,151.674149 236.858093,152.628235 
	C236.433197,154.444382 236.294022,155.918381 235.027039,157.415344 
	C232.887955,158.605896 231.111588,158.614380 229.035187,157.275146 
	C228.711716,156.510223 228.705460,156.087708 228.829590,155.371307 
	C228.844040,154.902832 228.728073,154.728241 228.813736,154.312424 
z"/>
<path fill="#E0E3E3" opacity="1.000000" stroke="none" 
	d="
M247.326996,63.541710 
	C246.537628,67.686012 245.595734,71.393829 245.222717,75.158020 
	C244.878677,78.629852 242.693497,80.036926 239.901733,80.879166 
	C236.082336,82.031418 234.857941,80.807884 235.564194,76.783592 
	C237.020462,68.485451 238.499313,60.191261 239.960663,51.894001 
	C240.161362,50.754513 240.260681,49.284008 241.489395,49.060322 
	C242.734253,48.833694 243.462830,50.217331 243.975250,51.185848 
	C245.947601,54.913731 248.823700,58.418339 247.326996,63.541710 
z"/>
<path fill="#A6AAAB" opacity="1.000000" stroke="none" 
	d="
M260.969177,145.590271 
	C257.407776,144.337265 258.688568,140.742371 258.313690,138.240677 
	C257.790649,134.750092 256.761200,134.363602 253.651184,135.456451 
	C251.897842,127.886314 253.896927,120.584862 254.230667,113.210197 
	C254.412521,109.192017 255.943817,106.219566 260.052551,104.383362 
	C260.881104,106.499428 261.631653,108.406059 264.546265,108.936897 
	C264.027069,117.396843 263.122467,125.803947 262.118164,134.607300 
	C262.141846,135.159836 262.265198,135.316116 262.175842,135.682053 
	C261.667389,138.989670 261.371552,142.087631 260.969177,145.590271 
z"/>
<path fill="#C7CAC9" opacity="1.000000" stroke="none" 
	d="
M282.454102,258.993530 
	C284.588440,251.386307 284.588440,251.386307 276.083282,245.388580 
	C284.811707,245.208145 293.616577,244.459229 302.695251,245.666504 
	C302.979156,246.288101 303.055939,246.646759 302.947052,246.935364 
	C298.315948,259.210052 298.313873,259.209259 282.454102,258.993530 
z"/>
<path fill="#C7CAC9" opacity="1.000000" stroke="none" 
	d="
M205.999237,317.337280 
	C211.399628,318.353790 216.114822,321.256317 222.088074,320.233887 
	C225.543625,319.642395 226.956146,318.410645 227.870956,315.165771 
	C228.161270,314.920593 228.583542,314.908447 228.785645,314.969910 
	C229.741135,320.256042 226.657867,324.964355 226.904800,330.555054 
	C220.538208,334.245667 214.020569,332.496979 207.591507,331.597290 
	C205.712967,331.334412 204.989700,329.219025 203.850128,327.297699 
	C204.387985,323.829193 205.105011,320.755066 205.999237,317.337280 
z"/>
<path fill="#C2C6C3" opacity="1.000000" stroke="none" 
	d="
M203.420242,327.162842 
	C210.268051,332.783752 218.360443,330.518524 226.401672,330.987701 
	C226.617569,334.443909 224.759308,337.607788 224.943878,341.567505 
	C216.835892,341.954895 208.663147,342.625336 201.036026,338.006378 
	C200.832977,337.310425 200.856400,336.923859 201.004761,336.271545 
	C201.498093,335.559204 201.830185,335.095276 201.814102,334.200439 
	C202.237915,331.751282 202.703735,329.586853 203.420242,327.162842 
z"/>
<path fill="#C7CAC9" opacity="1.000000" stroke="none" 
	d="
M251.273621,107.142921 
	C249.869354,112.760139 249.104904,118.124466 248.944702,123.600647 
	C248.749344,130.277878 247.929855,131.032104 240.440308,132.043121 
	C240.316422,130.842194 240.503525,129.660583 240.852570,127.764481 
	C240.977631,126.871864 240.940720,126.693710 240.988983,126.256287 
	C241.311813,125.740097 241.529816,125.467613 241.791901,124.923706 
	C242.611786,124.161942 243.364975,123.653625 244.590240,122.770874 
	C245.147583,122.097313 245.232849,121.798195 245.599045,121.126602 
	C245.784866,120.605774 245.689743,120.457428 245.782623,120.123253 
	C245.556183,116.657677 244.751816,113.632683 240.741257,113.195145 
	C236.231201,112.703110 233.336044,117.289482 235.505722,121.823906 
	C236.678879,124.275665 237.741425,126.584343 237.018265,129.680145 
	C236.663116,130.315613 236.395035,130.594757 236.048126,131.136765 
	C235.992706,131.422119 235.772797,131.852570 235.537811,131.909119 
	C233.219284,130.787292 232.261490,128.839539 231.795532,126.249008 
	C230.083374,119.385612 233.995865,113.799858 234.868439,107.374886 
	C239.982224,109.694168 244.707382,110.507622 248.909760,105.079315 
	C250.545074,104.705406 250.972595,105.698639 251.273621,107.142921 
z"/>
<path fill="#C2C6C3" opacity="1.000000" stroke="none" 
	d="
M181.369476,326.785278 
	C178.158524,327.821838 177.252228,331.521423 173.695007,331.914978 
	C175.534561,324.545074 177.699997,317.110870 179.865921,309.676819 
	C180.388794,307.882233 181.167160,306.536896 183.177170,305.753693 
	C185.656281,304.787811 186.866028,302.592041 186.712860,299.393738 
	C188.781448,297.763672 190.882828,297.004791 193.435944,298.251312 
	C191.667542,307.672577 191.449951,317.460999 183.388382,324.131134 
	C182.632202,324.756805 182.375381,325.836517 181.369476,326.785278 
z"/>
<path fill="#C7CAC9" opacity="1.000000" stroke="none" 
	d="
M269.529297,212.946686 
	C271.606903,216.838623 272.957275,220.820312 276.664246,223.562515 
	C278.941742,225.247269 277.775146,228.300476 274.877197,228.947800 
	C273.336304,229.292007 271.537415,228.401718 270.111511,230.258957 
	C267.938629,230.676117 265.894592,230.754456 263.421417,230.738144 
	C258.982483,226.799896 256.323914,222.334488 256.736816,216.248123 
	C260.847900,214.267334 264.882965,213.207565 269.529297,212.946686 
z"/>
<path fill="#969998" opacity="1.000000" stroke="none" 
	d="
M218.466080,177.793976 
	C222.072006,180.529343 222.576752,183.737305 221.792572,187.649704 
	C220.814728,192.528305 219.916168,197.499100 219.785904,202.451202 
	C219.636261,208.139969 217.192795,210.883270 211.206238,211.009216 
	C210.526520,211.037476 210.263397,211.104156 209.704071,210.890594 
	C207.811050,207.397079 209.638519,204.505280 210.261795,201.499954 
	C210.663223,199.564224 211.623047,197.766388 211.737396,195.347137 
	C212.448853,189.327621 214.537842,184.088486 216.350510,178.377869 
	C217.033478,177.677063 217.542252,177.521744 218.466080,177.793976 
z"/>
<path fill="#D6D7D5" opacity="1.000000" stroke="none" 
	d="
M256.556671,245.030350 
	C257.247162,247.591064 259.121674,249.411819 260.816162,250.567062 
	C263.946259,252.701065 264.117645,255.092804 263.004761,258.523590 
	C257.632233,258.966980 252.270721,259.036102 246.451050,259.002258 
	C246.985672,255.198929 247.390778,251.709793 243.756012,248.945236 
	C243.089462,248.438248 243.235397,246.863022 243.010590,245.395630 
	C247.373154,245.012192 251.731461,245.014023 256.556671,245.030350 
z"/>
<path fill="#A0A3A2" opacity="1.000000" stroke="none" 
	d="
M157.322189,377.849243 
	C155.709732,373.907990 153.467834,374.117920 151.091965,376.966370 
	C149.604919,378.749176 148.257248,379.669678 145.902802,377.832733 
	C151.185501,370.672943 156.708298,363.829285 162.516113,356.795135 
	C164.472839,359.294830 166.587677,361.348541 170.167847,361.866272 
	C166.119278,367.325104 161.866379,372.508514 157.322189,377.849243 
z"/>
<path fill="#CDD0CD" opacity="1.000000" stroke="none" 
	d="
M256.542603,215.950684 
	C257.545135,221.213577 260.922546,225.293167 262.977997,230.294342 
	C257.632202,230.791824 252.272186,230.940170 246.453186,230.989624 
	C249.571823,225.966934 245.936676,222.919708 243.028442,219.322845 
	C247.139282,216.998886 251.616592,216.418945 256.542603,215.950684 
z"/>
<path fill="#C2C6C3" opacity="1.000000" stroke="none" 
	d="
M192.444977,334.000458 
	C191.997238,332.879791 191.993866,331.758423 191.980743,330.216644 
	C191.306244,327.301758 190.624069,324.823914 189.804459,322.365967 
	C188.211685,317.589355 190.521713,313.085327 193.267471,308.738220 
	C196.170929,308.497650 195.830795,310.925964 197.003189,312.595764 
	C198.868454,310.817902 199.596359,306.122833 203.797302,309.670074 
	C201.882416,317.879425 199.826370,325.773010 197.556671,333.891663 
	C195.858459,334.077759 194.373886,334.038757 192.444977,334.000458 
z"/>
<path fill="#D9DCDA" opacity="1.000000" stroke="none" 
	d="
M218.825180,177.590973 
	C218.454834,178.014709 218.092758,178.017761 217.462616,178.089859 
	C215.525360,179.220276 213.921005,179.368774 212.257233,177.420349 
	C212.219116,176.175629 212.360779,175.331802 212.773560,173.809692 
	C213.346695,171.667831 213.648712,170.204285 214.064056,168.381439 
	C214.518143,167.560806 214.838989,167.090881 214.787796,166.202133 
	C215.357758,158.919998 217.848755,152.329132 219.441605,145.204956 
	C221.157867,144.950302 222.651413,144.982956 224.592743,145.023788 
	C226.534897,148.706635 224.753235,152.177139 224.088211,155.612350 
	C223.048584,160.982697 221.560638,166.291611 219.712036,171.864944 
	C219.411957,173.894028 219.122711,175.532135 218.825180,177.590973 
z"/>
<path fill="#CDD0CD" opacity="1.000000" stroke="none" 
	d="
M204.095139,309.643280 
	C201.423050,308.396057 199.895920,309.294159 199.187714,311.956940 
	C198.775040,313.508545 198.965652,315.797058 196.752350,315.648773 
	C193.912476,315.458496 195.438751,312.828705 194.966904,311.296265 
	C194.775772,310.675446 194.572723,310.058350 194.063934,309.189240 
	C191.416992,305.107452 193.784912,301.887146 195.327942,298.234558 
	C197.755264,296.635529 199.339890,294.706940 201.419983,292.348846 
	C203.463745,293.434784 204.834015,295.033356 207.510406,294.982300 
	C206.658478,299.761200 205.455154,304.530945 204.095139,309.643280 
z"/>
<path fill="#CDD0CD" opacity="1.000000" stroke="none" 
	d="
M193.214386,297.772583 
	C191.090317,298.700592 189.502808,300.347443 187.057404,298.995178 
	C184.580231,295.573578 181.874496,293.667694 177.367767,295.866943 
	C174.860046,293.401917 175.311920,290.980164 177.676910,288.318756 
	C178.905914,286.204254 179.814484,284.408508 180.865082,282.308838 
	C182.971603,280.602661 183.926453,282.551544 185.246201,283.283997 
	C187.942596,284.780487 190.010880,287.442291 193.698975,287.823364 
	C194.213287,287.988159 194.418457,288.001831 194.929855,288.052582 
	C196.874771,291.628784 195.363571,294.615662 193.214386,297.772583 
z"/>
<path fill="#939797" opacity="1.000000" stroke="none" 
	d="
M147.273163,369.181488 
	C138.655640,380.040192 130.158051,390.464661 121.775406,400.980804 
	C119.283676,404.106720 118.519501,402.209442 117.633224,399.528259 
	C120.041031,394.333710 124.008553,390.580566 127.233047,385.860229 
	C131.828522,379.212189 137.579620,373.941193 142.165924,367.240875 
	C143.633469,365.468994 144.847672,363.901398 147.406433,365.149689 
	C148.138016,366.622833 147.981934,367.715942 147.273163,369.181488 
z"/>
<path fill="#A6AAAB" opacity="1.000000" stroke="none" 
	d="
M236.235443,187.288818 
	C235.953659,185.920441 235.951721,184.831528 236.042297,183.343826 
	C234.908920,179.331055 235.736069,175.603790 235.530411,171.502670 
	C235.593597,168.463547 235.302643,165.799744 236.993195,163.046432 
	C242.364456,159.615082 243.883118,160.581818 244.563171,167.590515 
	C243.881042,174.715530 242.990128,181.461670 241.990311,188.598541 
	C239.510086,190.715805 237.971954,189.295868 236.235443,187.288818 
z"/>
<path fill="#A2A4A3" opacity="1.000000" stroke="none" 
	d="
M167.594833,384.968842 
	C164.125198,385.066406 161.870102,383.869751 161.386749,379.815125 
	C163.556686,374.493042 167.738388,371.184937 171.258682,366.968201 
	C173.201614,368.782776 174.713318,370.864105 177.359634,371.736877 
	C179.290070,372.373505 180.245743,373.821777 179.648773,376.372803 
	C177.776642,374.503632 176.281097,374.608246 174.530930,376.929749 
	C172.465363,379.669617 170.105560,382.187653 167.594833,384.968842 
z"/>
<path fill="#D6D7D5" opacity="1.000000" stroke="none" 
	d="
M313.310974,268.256165 
	C310.858826,262.806030 308.703522,257.617432 306.269745,252.211761 
	C305.600861,250.606094 305.210388,249.217560 304.822754,247.465424 
	C307.934143,248.898300 308.258301,245.892593 309.719299,244.210663 
	C314.222321,252.739731 317.112549,261.991394 320.458344,271.484283 
	C316.513397,274.303833 316.050323,269.362854 313.310974,268.256165 
z"/>
<path fill="#ABADAB" opacity="1.000000" stroke="none" 
	d="
M170.617935,361.986969 
	C166.739105,362.416412 162.119980,364.267181 162.855408,357.038757 
	C165.290054,352.719452 168.821411,349.431061 169.870544,344.313660 
	C172.541840,345.118042 173.170425,348.541077 176.566437,348.947388 
	C175.992538,353.224396 175.435928,357.604950 171.514130,361.018127 
	C171.020493,361.478119 170.942093,361.655182 170.617935,361.986969 
z"/>
<path fill="#BABDBB" opacity="1.000000" stroke="none" 
	d="
M305.082397,310.279816 
	C305.063049,309.472961 305.044922,309.048645 305.025452,308.304626 
	C308.822479,308.046906 309.647736,309.782776 307.981323,313.073273 
	C307.020203,314.971039 306.346680,316.968872 307.476074,319.375977 
	C307.762451,319.619995 307.715057,319.816772 307.631470,319.873840 
	C305.474121,320.951660 305.475342,323.296906 304.243958,325.292999 
	C304.129883,325.657806 304.190613,325.875854 304.095642,325.937378 
	C302.581543,327.139740 301.471802,328.493073 300.983093,330.640381 
	C301.027771,331.312897 300.960175,331.619141 300.510071,332.003967 
	C299.067139,332.624420 298.756805,333.809906 298.221802,335.209473 
	C297.883636,337.549744 296.614624,339.047974 295.323730,340.851929 
	C294.751740,341.141998 294.448639,341.251434 293.669128,341.442596 
	C292.868622,341.586212 292.586456,341.504120 292.174927,341.128723 
	C291.008026,332.814636 297.165985,327.406128 299.907013,320.687866 
	C301.320679,317.223022 303.973541,314.329346 305.082397,310.279816 
z"/>
<path fill="#BABDBB" opacity="1.000000" stroke="none" 
	d="
M147.329208,364.855591 
	C145.316116,365.130341 144.661758,366.722534 143.241699,367.768616 
	C141.158600,369.491486 139.212845,370.357574 136.821960,368.235168 
	C141.739517,360.393585 147.821411,353.700745 153.811188,346.549438 
	C155.552902,346.988922 156.462753,348.341095 157.993774,349.427246 
	C158.472351,350.034149 158.647095,350.435242 158.781174,351.190369 
	C158.846252,352.145844 158.863632,352.781158 158.900269,353.730591 
	C158.856628,354.257751 158.833862,354.468628 159.126266,354.722961 
	C159.441422,354.766479 159.197983,355.152863 159.010757,355.283569 
	C156.302109,354.428070 155.442474,356.738861 154.228104,357.952759 
	C152.005814,360.174255 150.140823,362.750397 147.329208,364.855591 
z"/>
<path fill="#B5B8B6" opacity="1.000000" stroke="none" 
	d="
M174.880341,302.739868 
	C177.182632,304.222504 177.541122,305.865173 176.844849,308.090363 
	C174.219727,316.479889 171.734497,324.913177 169.025208,333.658447 
	C167.978134,334.824615 166.948685,335.073425 165.409515,334.616150 
	C162.601624,331.220642 165.651001,328.396301 165.797913,324.983856 
	C166.251740,323.414001 167.140961,322.461884 167.501389,320.879028 
	C167.628952,319.774719 167.731949,319.038177 167.969879,317.938141 
	C169.237411,313.368408 171.262619,309.415833 171.836960,304.614777 
	C172.462708,303.149323 173.162674,302.359650 174.880341,302.739868 
z"/>
<path fill="#969998" opacity="1.000000" stroke="none" 
	d="
M223.506363,202.397675 
	C223.201294,200.908554 223.335526,199.520111 223.672729,197.761810 
	C223.790573,197.141754 223.705429,196.891571 223.795898,196.285980 
	C224.071014,194.156097 224.170517,192.381622 224.431488,190.190491 
	C224.464874,188.689285 224.471527,187.604736 224.794525,186.262772 
	C225.001038,185.223816 225.006439,184.442307 225.186707,183.309326 
	C225.689713,182.499878 226.341003,182.528961 226.794022,181.840057 
	C227.368118,181.079285 227.826294,180.562912 228.538788,179.979614 
	C231.054031,179.434464 232.391739,180.603226 233.216248,182.851181 
	C230.522888,186.238434 231.306122,190.093124 230.290421,193.954773 
	C230.382797,194.710129 230.468628,195.087189 230.195190,195.724731 
	C230.373276,198.119476 229.685959,200.177597 229.176590,202.639404 
	C227.235062,203.896988 225.538666,203.712814 223.506363,202.397675 
z"/>
<path fill="#B5B8B6" opacity="1.000000" stroke="none" 
	d="
M244.880859,167.628143 
	C243.402847,167.717590 242.963394,166.783417 243.011276,165.523926 
	C243.151794,161.826752 241.295654,161.476547 238.070999,162.910309 
	C234.499420,154.381180 238.066071,143.439865 248.135834,139.215057 
	C248.833237,139.288788 249.105362,139.368561 249.704010,139.720932 
	C248.382080,143.476578 246.088257,146.716049 245.954529,151.145416 
	C241.576935,155.194122 241.096695,157.946564 244.649506,160.379150 
	C244.377396,160.429413 244.287811,160.856522 244.829544,161.756256 
	C245.790161,163.054901 245.419632,164.156113 245.195602,165.529785 
	C244.972351,166.334534 244.981064,166.810715 244.880859,167.628143 
z"/>
<path fill="#C2C6C3" opacity="1.000000" stroke="none" 
	d="
M211.900848,177.352402 
	C213.411957,177.839706 214.881561,178.099136 216.808090,178.112457 
	C217.370712,183.894501 213.638885,188.762344 213.327271,194.743317 
	C211.324387,197.132172 211.438080,201.287674 206.783234,200.222229 
	C208.243958,192.541489 209.984085,185.113434 211.900848,177.352402 
z"/>
<path fill="#B2B4B1" opacity="1.000000" stroke="none" 
	d="
M136.367981,367.984436 
	C138.491486,369.023254 140.413864,367.766144 142.671967,368.014954 
	C142.387283,371.597137 138.993042,373.086243 137.092896,375.733612 
	C134.527939,379.307190 131.506180,382.552887 128.346298,386.026306 
	C126.238899,385.756683 123.762939,386.607880 123.793076,383.285889 
	C124.107147,382.822418 124.200737,382.603485 124.643936,382.098083 
	C125.340889,381.380951 125.688240,380.950287 126.354965,380.251129 
	C126.450493,379.227997 126.937263,378.831116 127.753250,378.359680 
	C128.212646,378.026917 128.366730,377.780701 128.693970,377.225800 
	C129.027802,376.740997 129.188492,376.564880 129.706833,376.058533 
	C130.064468,375.728333 130.290298,375.295898 130.499710,375.170837 
	C130.645676,374.859467 130.582230,374.673187 130.811890,374.451721 
	C131.104980,374.416504 131.139587,374.188477 131.235748,374.124817 
	C131.396149,373.670746 131.490860,373.287903 131.896591,372.817261 
	C132.177353,372.722015 132.398773,372.294434 132.725586,371.933533 
	C133.366135,371.199158 133.679901,370.825684 134.294922,370.242493 
	C134.567551,369.854462 134.538925,369.676239 134.780563,369.481262 
	C135.402359,369.011047 135.753906,368.557587 136.367981,367.984436 
z"/>
<path fill="#E0E3E3" opacity="1.000000" stroke="none" 
	d="
M197.680237,232.145233 
	C199.936432,233.559631 201.605301,234.305237 203.739960,231.889984 
	C206.011642,229.319687 208.947739,229.024216 211.918274,231.664062 
	C207.598328,234.214691 203.280853,236.500137 201.079071,241.711029 
	C198.540680,241.445023 195.761353,244.854904 193.758606,241.323578 
	C192.487564,239.082413 192.810226,236.940994 194.433578,234.871918 
	C195.274887,233.799622 196.146271,232.878540 197.680237,232.145233 
z"/>
<path fill="#AEB3B1" opacity="1.000000" stroke="none" 
	d="
M228.519623,157.259583 
	C230.457138,156.954163 232.196304,156.975586 234.368332,156.994339 
	C236.747101,158.476471 236.160095,160.539703 235.877106,162.411148 
	C235.505386,164.869568 235.600632,167.279205 235.968781,170.119537 
	C235.890030,171.930466 235.583740,173.266251 234.633102,174.820496 
	C232.963821,176.007736 231.741089,175.682083 230.343414,174.289856 
	C223.909470,169.114716 228.345810,163.115280 228.519623,157.259583 
z"/>
<path fill="#C7CAC9" opacity="1.000000" stroke="none" 
	d="
M288.520569,266.285339 
	C280.917725,267.936340 272.874603,266.652924 264.413696,267.214233 
	C252.001038,267.250427 240.058990,267.226715 227.664948,267.144501 
	C229.530380,265.885803 232.069275,266.126556 234.520203,266.120575 
	C252.400848,266.076782 270.281708,266.114655 288.520569,266.285339 
z"/>
<path fill="#AEB3B1" opacity="1.000000" stroke="none" 
	d="
M183.272034,337.360809 
	C184.973343,337.544434 184.684784,333.580231 186.937408,335.127258 
	C188.702820,336.339691 187.346680,337.810944 187.135696,339.183014 
	C187.060242,339.673676 186.842422,340.310822 187.055832,340.651947 
	C189.748764,344.956268 187.003769,348.740295 185.953888,353.098907 
	C183.861313,354.489227 181.725906,355.228027 179.069916,355.462830 
	C180.548798,349.452576 181.987259,343.606689 183.272034,337.360809 
z"/>
<path fill="#E0E3E3" opacity="1.000000" stroke="none" 
	d="
M175.127716,302.610901 
	C174.299164,303.017792 173.479889,303.306213 173.109009,304.686249 
	C171.300858,306.373047 170.724426,309.608856 167.116577,308.245728 
	C167.063019,306.817474 167.340912,305.610474 167.824310,303.917297 
	C169.503632,298.127167 170.977432,292.823181 172.703186,287.251587 
	C174.295425,287.704315 175.705093,288.131348 177.622192,287.999481 
	C177.432602,290.344299 176.677292,292.660736 176.974670,295.540161 
	C176.329926,298.065338 173.384567,299.460510 175.127716,302.610901 
z"/>
<path fill="#C2C6C3" opacity="1.000000" stroke="none" 
	d="
M327.376404,249.229538 
	C322.851776,244.461975 320.023926,239.071228 317.163330,233.297028 
	C319.060272,229.491898 321.334320,233.186050 323.795837,232.757935 
	C326.893158,237.540207 329.659210,242.313599 332.549805,247.431213 
	C331.468811,249.574707 329.716888,249.738571 327.376404,249.229538 
z"/>
<path fill="#D6D7D5" opacity="1.000000" stroke="none" 
	d="
M310.392792,221.203476 
	C308.714142,218.292480 307.363312,215.607193 305.958679,212.590393 
	C308.282410,209.217529 304.548126,205.651627 306.902802,202.244095 
	C310.380707,207.626266 313.690277,213.358231 317.053711,219.442841 
	C315.793610,223.526550 313.034882,221.609009 310.392792,221.203476 
z"/>
<path fill="#CDD0CD" opacity="1.000000" stroke="none" 
	d="
M167.171600,323.773438 
	C167.709198,327.480194 165.451675,330.149017 165.013565,333.617981 
	C165.557251,335.915405 165.047485,337.666168 164.041306,339.672546 
	C163.389023,340.761597 162.950302,341.570007 162.527023,342.796082 
	C162.215073,343.328461 162.055283,343.524323 161.589386,343.956085 
	C159.223465,344.878479 156.997894,345.996368 156.717651,342.007080 
	C158.173126,336.973938 159.499466,332.321716 160.995605,327.329895 
	C162.408859,326.298798 162.799255,325.159576 163.186203,323.836151 
	C164.101959,320.704041 165.579193,320.520081 167.171600,323.773438 
z"/>
<path fill="#D6D7D5" opacity="1.000000" stroke="none" 
	d="
M167.338074,323.972626 
	C165.927750,322.614716 164.678360,320.618561 164.043625,324.393585 
	C163.809311,325.787079 163.581589,326.905914 161.530273,326.971039 
	C162.859970,320.824768 164.554535,314.659210 166.517120,308.259064 
	C169.668106,308.955933 169.809692,304.856628 172.658905,305.024780 
	C173.082306,309.522766 170.802902,313.383270 169.322800,317.790588 
	C168.157898,318.742371 167.900406,319.569672 168.765778,320.795441 
	C168.968185,322.158966 168.501892,323.079956 167.338074,323.972626 
z"/>
<path fill="#A2A4A3" opacity="1.000000" stroke="none" 
	d="
M123.717407,383.191711 
	C123.872841,386.164215 127.636971,383.025330 127.964119,385.794128 
	C125.998215,391.338776 121.748917,394.881226 117.934410,399.098969 
	C114.730560,395.661743 114.935654,392.613983 118.486931,389.526947 
	C120.444595,387.825226 121.796349,385.426483 123.717407,383.191711 
z"/>
<path fill="#CDD0CD" opacity="1.000000" stroke="none" 
	d="
M310.187103,221.298370 
	C312.193604,219.960693 314.484497,220.562607 316.898804,220.054626 
	C317.400421,220.098969 317.693298,220.402420 318.039673,221.009399 
	C320.081573,224.898407 322.070007,228.483856 324.092773,232.418076 
	C323.039825,234.801483 321.747589,235.597137 320.140045,233.288376 
	C319.411713,232.242371 318.602325,232.240494 317.324402,232.857971 
	C314.793732,229.188217 312.551483,225.403595 310.187103,221.298370 
z"/>
<path fill="#969998" opacity="1.000000" stroke="none" 
	d="
M235.777527,187.354446 
	C237.692764,187.664307 239.429916,188.319260 241.524246,188.981750 
	C241.858704,189.784027 241.835983,190.578766 241.676270,191.752792 
	C241.474792,192.935242 241.540695,193.746841 241.201981,194.786224 
	C241.050583,195.194733 241.081039,195.361084 241.028336,195.767090 
	C240.825211,196.160019 240.705215,196.313309 240.722412,196.724365 
	C240.448502,200.473938 241.506851,204.889511 235.394958,205.011383 
	C234.060272,204.782547 233.339005,204.252670 232.535461,203.251816 
	C232.231812,200.979889 234.500305,199.745087 234.197006,197.271210 
	C234.654007,195.829620 234.408264,194.696884 234.802429,193.344971 
	C234.795288,191.249481 235.003235,189.453690 235.777527,187.354446 
z"/>
<path fill="#A8ACAA" opacity="1.000000" stroke="none" 
	d="
M162.773529,340.196686 
	C163.482361,338.155182 163.990311,336.321320 164.754089,334.246399 
	C166.034775,334.002136 167.059662,333.998901 168.469040,333.991241 
	C166.855774,341.280212 165.856277,349.004517 159.696136,354.688812 
	C159.151062,354.527100 158.860687,354.287750 158.274048,353.567932 
	C157.855942,352.897095 157.734116,352.706757 157.801926,352.235474 
	C158.004684,351.529633 158.017807,351.104767 158.043274,350.361359 
	C158.492691,347.480652 159.841904,345.399414 161.748657,343.240845 
	C161.985474,342.994415 162.001877,342.498566 162.006866,342.250549 
	C162.023315,341.408234 162.196136,340.870544 162.773529,340.196686 
z"/>
<path fill="#C2C6C3" opacity="1.000000" stroke="none" 
	d="
M220.003052,172.175293 
	C217.038544,170.933487 218.954330,169.081757 219.320969,167.601486 
	C221.123703,160.323059 223.104279,153.088669 225.031281,145.435349 
	C225.323013,144.991867 225.601074,144.931427 226.087753,144.871704 
	C225.412750,153.024460 224.524719,161.156158 223.288422,169.867645 
	C222.061737,170.996521 221.183304,171.545609 220.003052,172.175293 
z"/>
<path fill="#CDD0CD" opacity="1.000000" stroke="none" 
	d="
M313.049866,268.366760 
	C316.762817,266.663513 316.820435,271.761993 320.144836,271.864563 
	C321.741486,274.915070 322.941711,277.961517 324.140747,281.371399 
	C323.841644,285.303040 322.038849,285.158722 319.324402,283.277100 
	C315.876556,278.723816 315.191345,273.436523 313.049866,268.366760 
z"/>
<path fill="#A0A3A2" opacity="1.000000" stroke="none" 
	d="
M231.994415,302.386017 
	C237.515076,301.796631 241.695541,305.370544 246.923843,306.987976 
	C242.358337,309.474609 236.881439,308.691620 231.356964,309.869873 
	C230.932968,309.371887 230.931366,308.971832 230.915161,308.271118 
	C231.237946,306.232605 231.575333,304.494690 231.994415,302.386017 
z"/>
<path fill="#B7BCBB" opacity="1.000000" stroke="none" 
	d="
M206.313019,200.320770 
	C210.158173,200.416794 210.323318,196.620605 212.731293,195.086929 
	C213.156982,200.312805 209.958466,204.912430 209.968536,210.641418 
	C209.238342,211.400238 208.515854,211.688690 207.395416,211.974335 
	C204.839401,210.838043 204.511993,208.858841 204.794815,206.393677 
	C205.391052,204.279373 205.756638,202.475693 206.313019,200.320770 
z"/>
<path fill="#E0E3E3" opacity="1.000000" stroke="none" 
	d="
M194.053864,265.685883 
	C191.173630,265.671570 188.456543,265.345337 185.376465,265.016876 
	C185.600632,263.115692 186.144104,261.201782 186.788788,259.322571 
	C187.301331,257.828522 187.246552,255.529419 189.323395,255.555496 
	C191.085388,255.577621 191.755310,257.577606 192.513840,259.062714 
	C193.019226,260.052155 192.927444,261.435181 194.647705,261.936279 
	C194.730286,263.128998 194.473663,264.251465 194.053864,265.685883 
z"/>
<path fill="#A0A3A2" opacity="1.000000" stroke="none" 
	d="
M146.996216,365.435944 
	C148.479553,360.634064 152.666550,358.406647 155.047607,354.742706 
	C155.702682,353.734711 157.113022,354.002258 158.501373,355.054504 
	C155.121414,360.012787 151.419296,364.611298 147.413208,369.395203 
	C147.071396,368.352264 147.033539,367.123871 146.996216,365.435944 
z"/>
<path fill="#C2C6C3" opacity="1.000000" stroke="none" 
	d="
M231.560333,125.938217 
	C232.785355,127.752983 235.490616,128.515015 235.241638,131.550598 
	C233.109009,135.194275 229.206665,136.754700 227.073410,140.489517 
	C227.365082,135.569489 227.659363,130.323502 231.560333,125.938217 
z"/>
<path fill="#C2C6C3" opacity="1.000000" stroke="none" 
	d="
M319.024841,283.291718 
	C320.639191,283.015442 322.516571,284.803741 323.976318,282.037659 
	C329.242920,287.810059 323.785614,292.245972 321.424377,297.409149 
	C320.540497,294.312500 323.109894,290.764862 320.170349,287.312500 
	C320.533844,286.543182 320.664612,286.021637 320.191711,285.203979 
	C319.665894,284.529266 319.355957,284.057556 319.024841,283.291718 
z"/>
<path fill="#B7BCBB" opacity="1.000000" stroke="none" 
	d="
M326.973083,249.425476 
	C328.453064,248.145920 330.122772,247.939072 332.250000,247.821930 
	C334.304199,249.712463 335.680908,251.706818 334.003998,254.667847 
	C329.833984,255.531631 327.688751,253.621185 326.973083,249.425476 
z"/>
<path fill="#C2C6C3" opacity="1.000000" stroke="none" 
	d="
M161.620544,343.043640 
	C161.435272,345.509125 161.023361,348.092590 158.353271,349.872070 
	C155.830322,350.246552 154.684113,349.054321 154.124359,346.708984 
	C154.825272,344.945770 155.574249,343.514771 156.585022,341.854980 
	C157.382278,344.923035 159.453781,343.602692 161.620544,343.043640 
z"/>
<path fill="#8D8F8D" opacity="1.000000" stroke="none" 
	d="
M230.636551,395.032196 
	C231.114243,395.954468 231.536621,396.782166 233.043060,397.097107 
	C230.872665,399.485321 228.339752,401.793030 225.472809,404.183197 
	C224.500854,403.539185 223.862930,402.812714 222.890717,401.923096 
	C225.144913,399.556946 227.733398,397.353912 230.636551,395.032196 
z"/>
<path fill="#919594" opacity="1.000000" stroke="none" 
	d="
M222.932037,202.574524 
	C224.828018,201.980743 226.580154,201.785294 228.646179,202.841965 
	C229.872681,207.552689 226.224335,208.281891 223.596466,207.931763 
	C220.127243,207.469559 223.002014,204.622482 222.932037,202.574524 
z"/>
<path fill="#AEB3B1" opacity="1.000000" stroke="none" 
	d="
M243.101181,118.416870 
	C242.663620,121.552666 240.899216,122.347801 238.512085,121.077850 
	C237.022888,120.285591 236.749207,118.543221 237.985428,117.244453 
	C239.989319,115.139160 241.748245,115.774391 243.101181,118.416870 
z"/>
<path fill="#A6AAAB" opacity="1.000000" stroke="none" 
	d="
M179.147247,298.329163 
	C181.806885,297.434692 183.748062,297.722534 183.742447,300.776306 
	C183.739288,302.496246 182.608368,303.516571 180.833572,303.219025 
	C177.840317,302.717255 177.750931,300.862427 179.147247,298.329163 
z"/>
<path fill="#969998" opacity="1.000000" stroke="none" 
	d="
M233.708557,175.378387 
	C233.982025,173.592300 234.296661,172.272141 235.283020,170.720078 
	C235.729797,170.361252 235.964844,170.358688 236.510742,170.522461 
	C237.016098,174.574600 237.330475,178.461823 236.410126,182.641449 
	C235.661591,182.988235 235.188339,183.031418 234.353714,183.011475 
	C232.501862,180.654770 231.838684,178.293976 233.708557,175.378387 
z"/>
<path fill="#AEB3B1" opacity="1.000000" stroke="none" 
	d="
M297.103638,214.683807 
	C293.881775,213.180740 295.392578,210.192032 294.949371,207.284042 
	C296.218201,205.702148 297.805664,206.028244 299.706543,206.015381 
	C299.950348,209.096069 298.157684,211.587921 297.103638,214.683807 
z"/>
<path fill="#8D8F8D" opacity="1.000000" stroke="none" 
	d="
M244.951721,160.040970 
	C245.979507,159.263321 245.174850,158.273224 245.164597,157.372818 
	C245.142883,155.467041 245.824326,154.129471 247.920013,154.119247 
	C249.672684,154.110687 250.735229,155.147629 250.666718,156.871338 
	C250.591446,158.764984 249.494629,159.871231 247.468109,159.737228 
	C246.819641,159.694351 246.177521,159.555588 245.239594,159.780060 
	C244.946701,160.099411 244.991379,160.016815 244.951721,160.040970 
z"/>
<path fill="#939797" opacity="1.000000" stroke="none" 
	d="
M227.232117,176.563110 
	C226.525787,178.764389 225.157471,179.465347 223.367157,178.728058 
	C222.009903,178.169113 221.648941,176.844879 221.905701,175.417007 
	C222.145248,174.084839 223.168198,173.413040 224.314453,173.320297 
	C226.263672,173.162552 227.403122,174.132858 227.232117,176.563110 
z"/>
<path fill="#8E8F8E" opacity="1.000000" stroke="none" 
	d="
M173.644867,403.929169 
	C176.972168,403.899261 177.698807,405.653931 176.669632,408.065613 
	C176.039490,409.542236 174.254196,410.221802 172.934860,409.159668 
	C170.880325,407.505646 170.973877,405.569366 173.644867,403.929169 
z"/>
<path fill="#AEB3B1" opacity="1.000000" stroke="none" 
	d="
M236.483932,239.277618 
	C232.301086,239.282532 228.583603,239.242477 224.416443,239.080887 
	C234.667999,238.073685 245.395325,238.123169 256.579590,238.171432 
	C250.409882,240.009338 243.632584,238.630478 236.483932,239.277618 
z"/>
<path fill="#A8ACAA" opacity="1.000000" stroke="none" 
	d="
M233.668289,174.967484 
	C234.000977,177.359085 233.992737,179.713272 233.988403,182.507919 
	C233.992325,182.948364 233.543961,183.102386 233.317093,183.171005 
	C231.852707,182.257217 230.615189,181.274796 229.085388,180.102539 
	C230.122086,178.410370 230.096832,176.608688 229.990601,174.386780 
	C231.144135,174.308807 232.235748,174.619446 233.668289,174.967484 
z"/>
<path fill="#A6AAAB" opacity="1.000000" stroke="none" 
	d="
M204.871155,206.395264 
	C204.778885,208.128571 206.259460,209.550873 206.948456,211.624023 
	C205.245316,212.954742 203.533157,213.788620 203.954346,210.465607 
	C204.114639,209.200989 204.457306,207.959488 204.871155,206.395264 
z"/>
<path fill="#C7CAC9" opacity="1.000000" stroke="none" 
	d="
M301.178101,330.760315 
	C299.380829,328.212860 300.538116,326.742859 303.640198,326.012848 
	C303.143280,327.516266 302.285950,329.033630 301.178101,330.760315 
z"/>
<path fill="#E7E9E6" opacity="1.000000" stroke="none" 
	d="
M223.689056,238.969940 
	C222.966934,243.091599 221.147202,242.060318 219.072876,239.479767 
	C219.169189,239.090576 219.333618,239.021042 219.763824,238.984100 
	C220.401443,238.625916 220.853394,238.475281 221.693527,238.781113 
	C222.454269,238.958664 222.906815,238.919479 223.689056,238.969940 
z"/>
<path fill="#C7CAC9" opacity="1.000000" stroke="none" 
	d="
M304.420227,325.428040 
	C304.048584,323.357574 303.976471,321.061584 307.131866,319.998322 
	C306.602112,321.686707 305.656342,323.442505 304.420227,325.428040 
z"/>
<path fill="#AEB3B1" opacity="1.000000" stroke="none" 
	d="
M271.532593,237.943710 
	C270.067474,238.239883 268.298492,238.421799 266.284576,238.389984 
	C267.769348,238.060654 269.499023,237.945038 271.532593,237.943710 
z"/>
<path fill="#919594" opacity="1.000000" stroke="none" 
	d="
M232.200821,203.325089 
	C233.390640,203.036362 234.515472,202.984589 234.947968,204.661102 
	C233.611862,205.460892 231.701920,207.103592 232.200821,203.325089 
z"/>
<path fill="#8D8F8D" opacity="1.000000" stroke="none" 
	d="
M232.223755,382.429749 
	C232.367874,381.301636 230.356384,378.641022 234.265106,379.204163 
	C233.903366,380.265625 233.194473,381.267761 232.223755,382.429749 
z"/>
<path fill="#E0E3E3" opacity="1.000000" stroke="none" 
	d="
M176.814880,273.311707 
	C176.784256,274.649719 177.663895,276.485199 175.678345,277.895111 
	C175.769150,276.528534 176.192719,275.051483 176.814880,273.311707 
z"/>
<path fill="#C7CAC9" opacity="1.000000" stroke="none" 
	d="
M215.119598,267.361603 
	C214.850266,266.019104 214.803177,264.488403 217.032135,263.882843 
	C216.668976,264.950073 215.990219,266.054291 215.119598,267.361603 
z"/>
<path fill="#959898" opacity="1.000000" stroke="none" 
	d="
M252.973053,345.425842 
	C254.390228,346.402008 254.189011,347.939484 253.254761,349.762177 
	C252.961746,348.611389 252.923630,347.223022 252.973053,345.425842 
z"/>
<path fill="#B5B8B6" opacity="1.000000" stroke="none" 
	d="
M298.468262,335.364563 
	C298.129456,334.245605 297.693207,332.780640 299.897766,332.157898 
	C299.782410,333.136414 299.269409,334.153168 298.468262,335.364563 
z"/>
<path fill="#919594" opacity="1.000000" stroke="none" 
	d="
M248.438324,165.105957 
	C249.701218,165.476334 250.105042,166.121689 248.504456,166.963898 
	C248.227905,166.455826 248.238815,165.891037 248.438324,165.105957 
z"/>
<path fill="#A6AAAB" opacity="1.000000" stroke="none" 
	d="
M245.099640,165.600449 
	C244.950562,164.863937 244.937454,163.869522 244.948242,162.502502 
	C246.228760,163.104935 245.116638,164.274216 245.099640,165.600449 
z"/>
<path fill="#BABDBB" opacity="1.000000" stroke="none" 
	d="
M201.540497,334.100830 
	C202.824860,334.617401 203.009872,335.288727 201.416092,335.956848 
	C201.189423,335.432526 201.249161,334.859222 201.540497,334.100830 
z"/>
<path fill="#919594" opacity="1.000000" stroke="none" 
	d="
M224.870850,186.303391 
	C224.952011,187.072479 224.908386,188.139633 224.728851,189.490311 
	C224.643982,188.716385 224.695023,187.658905 224.870850,186.303391 
z"/>
<path fill="#A0A3A2" opacity="1.000000" stroke="none" 
	d="
M231.727371,139.609680 
	C231.561951,140.209641 231.156113,140.928574 230.557495,141.805038 
	C230.210800,140.952698 230.626923,140.229172 231.727371,139.609680 
z"/>
<path fill="#A6AAAB" opacity="1.000000" stroke="none" 
	d="
M260.013306,153.735794 
	C258.790894,152.852631 258.696930,151.655228 260.005859,150.229126 
	C260.313110,150.472229 260.322723,150.875168 260.203918,151.556458 
	C260.179504,152.032196 260.283569,152.229584 260.193146,152.699371 
	C260.030579,153.143448 260.062500,153.315109 260.013306,153.735794 
z"/>
<path fill="#C2C6C3" opacity="1.000000" stroke="none" 
	d="
M214.520325,166.119995 
	C215.822113,166.582672 215.985489,167.249390 214.461884,167.972931 
	C214.219971,167.454437 214.262558,166.886719 214.520325,166.119995 
z"/>
<path fill="#919594" opacity="1.000000" stroke="none" 
	d="
M234.855804,193.375519 
	C234.919098,194.190628 234.816925,195.289429 234.515320,196.651749 
	C234.440704,195.829910 234.565521,194.744553 234.855804,193.375519 
z"/>
<path fill="#8E8F8E" opacity="1.000000" stroke="none" 
	d="
M127.830811,378.348877 
	C127.723541,378.762024 127.388496,379.250946 126.863899,379.861267 
	C126.983910,379.463318 127.293465,378.944000 127.830811,378.348877 
z"/>
<path fill="#B7BCBB" opacity="1.000000" stroke="none" 
	d="
M223.965851,126.250153 
	C224.794205,126.777054 224.332611,127.352455 223.579788,127.972763 
	C223.513092,127.512627 223.670166,126.996902 223.965851,126.250153 
z"/>
<path fill="#AEB3B1" opacity="1.000000" stroke="none" 
	d="
M193.151978,350.729645 
	C193.066025,350.277008 193.172470,349.801453 193.424927,349.209564 
	C193.495407,349.631073 193.419876,350.168884 193.151978,350.729645 
z"/>
<path fill="#919594" opacity="1.000000" stroke="none" 
	d="
M241.158905,194.761612 
	C241.083771,194.230850 241.147400,193.433334 241.375153,192.383942 
	C241.458755,192.919662 241.378204,193.707245 241.158905,194.761612 
z"/>
<path fill="#AEB3B1" opacity="1.000000" stroke="none" 
	d="
M221.820801,238.891891 
	C221.560242,239.075729 221.118759,239.153580 220.353439,239.124054 
	C220.566360,238.939743 221.103119,238.862823 221.820801,238.891891 
z"/>
<path fill="#D6D7D5" opacity="1.000000" stroke="none" 
	d="
M250.907196,49.730495 
	C251.007111,50.504208 250.978577,51.130108 250.899796,52.227119 
	C250.435043,52.172592 250.020538,51.646954 249.461914,50.804611 
	C249.441833,50.274506 249.565887,50.061104 250.038666,49.723366 
	C250.387421,49.599022 250.778748,49.582680 250.907196,49.730495 
z"/>
<path fill="#C7CAC9" opacity="1.000000" stroke="none" 
	d="
M304.027161,246.226059 
	C305.044464,245.310440 304.868561,246.189636 304.894958,246.946564 
	C304.561646,246.947281 304.303223,246.720901 304.027161,246.226059 
z"/>
<path fill="#D6D7D5" opacity="1.000000" stroke="none" 
	d="
M250.812073,53.168083 
	C251.115494,53.385105 251.475769,53.940563 251.870026,54.845882 
	C251.558960,54.632668 251.213943,54.069588 250.812073,53.168083 
z"/>
<path fill="#8E8F8E" opacity="1.000000" stroke="none" 
	d="
M131.970978,372.782776 
	C132.027435,373.109924 131.877518,373.497864 131.529755,373.973450 
	C131.476135,373.655243 131.620377,373.249390 131.970978,372.782776 
z"/>
<path fill="#E0E3E3" opacity="1.000000" stroke="none" 
	d="
M177.579834,270.679443 
	C177.737076,271.123138 177.632141,271.810730 177.275757,272.746460 
	C177.122101,272.304169 177.219864,271.613708 177.579834,270.679443 
z"/>
<path fill="#A8ACAA" opacity="1.000000" stroke="none" 
	d="
M226.646088,181.695236 
	C226.576523,182.005005 226.243073,182.414322 225.635590,182.890762 
	C225.701767,182.570175 226.041977,182.182480 226.646088,181.695236 
z"/>
<path fill="#919594" opacity="1.000000" stroke="none" 
	d="
M230.098206,195.766739 
	C230.000305,195.551361 230.013184,195.155670 230.072937,194.568817 
	C230.149536,194.780594 230.179260,195.183502 230.098206,195.766739 
z"/>
<path fill="#B7BCBB" opacity="1.000000" stroke="none" 
	d="
M245.859711,120.051125 
	C246.055023,120.119896 246.069504,120.307739 245.947021,120.627548 
	C245.713104,120.585136 245.669373,120.388702 245.859711,120.051125 
z"/>
<path fill="#8D8F8D" opacity="1.000000" stroke="none" 
	d="
M262.070251,135.808990 
	C261.963196,135.891708 261.899689,135.441513 261.959106,135.222534 
	C262.238586,135.194061 262.291534,135.434982 262.070251,135.808990 
z"/>
<path fill="#C2C6C3" opacity="1.000000" stroke="none" 
	d="
M236.289093,131.298828 
	C236.146851,131.072556 236.300995,130.722977 236.681473,130.193710 
	C236.800369,130.401184 236.692932,130.788361 236.289093,131.298828 
z"/>
<path fill="#A0A3A2" opacity="1.000000" stroke="none" 
	d="
M171.177094,361.350342 
	C171.098892,361.301086 171.191833,361.162750 171.227509,361.141632 
	C171.263199,361.120514 171.255280,361.399597 171.177094,361.350342 
z"/>
<path fill="#B7BCBB" opacity="1.000000" stroke="none" 
	d="
M240.908081,127.126953 
	C241.014526,127.050011 241.074982,127.445229 241.027924,127.535797 
	C240.768250,127.550529 240.708511,127.409706 240.908081,127.126953 
z"/>
<path fill="#B7BCBB" opacity="1.000000" stroke="none" 
	d="
M241.571732,124.769745 
	C241.736908,124.999733 241.615219,125.329201 241.283844,125.827843 
	C241.144409,125.621086 241.214630,125.245148 241.571732,124.769745 
z"/>
<path fill="#B7BCBB" opacity="1.000000" stroke="none" 
	d="
M244.945221,122.424683 
	C245.062317,122.396439 244.928284,122.771690 244.844009,122.827835 
	C244.759735,122.883987 244.828110,122.452934 244.945221,122.424683 
z"/>
<path fill="#B7BCBB" opacity="1.000000" stroke="none" 
	d="
M224.938019,121.201111 
	C225.232330,121.242508 225.276062,121.397888 225.082733,121.671829 
	C224.769745,121.646523 224.717010,121.488091 224.938019,121.201111 
z"/>
<path fill="#8E8F8E" opacity="1.000000" stroke="none" 
	d="
M134.916443,369.501953 
	C135.095947,369.670258 135.034195,369.836304 134.730865,369.997650 
	C134.545532,369.825836 134.607513,369.661377 134.916443,369.501953 
z"/>
<path fill="#8E8F8E" opacity="1.000000" stroke="none" 
	d="
M132.925400,371.579102 
	C133.052383,371.572632 132.988739,371.953308 132.891510,371.986572 
	C132.794281,372.019806 132.665207,371.801392 132.665207,371.801392 
	C132.665207,371.801392 132.798416,371.585541 132.925400,371.579102 
z"/>
<path fill="#919594" opacity="1.000000" stroke="none" 
	d="
M223.850357,196.087906 
	C223.966049,196.173828 223.960602,196.417084 223.915436,197.026154 
	C223.799255,197.141876 223.702667,196.895554 223.655014,196.640106 
	C223.632111,196.517365 223.701569,196.377396 223.850357,196.087906 
z"/>
<path fill="#8E8F8E" opacity="1.000000" stroke="none" 
	d="
M130.969635,374.467682 
	C131.157867,374.616089 131.110291,374.787872 130.835693,374.988800 
	C130.620255,374.839081 130.661987,374.663452 130.969635,374.467682 
z"/>
<path fill="#8E8F8E" opacity="1.000000" stroke="none" 
	d="
M129.960052,375.677856 
	C130.064468,375.728333 130.011566,375.916718 129.963348,375.934082 
	C129.915131,375.951477 129.855652,375.627411 129.960052,375.677856 
z"/>
<path fill="#E0E3E3" opacity="1.000000" stroke="none" 
	d="
M197.933807,252.752609 
	C197.691544,252.796570 197.557770,252.621902 197.480118,252.425079 
	C197.457886,252.368729 197.598114,252.248291 197.817169,252.084015 
	C198.001541,252.182358 198.032578,252.353958 197.933807,252.752609 
z"/>
<path fill="#8E8F8E" opacity="1.000000" stroke="none" 
	d="
M128.919434,376.855774 
	C128.867126,376.917084 128.905121,376.788666 128.938263,376.788757 
	C128.971390,376.788818 128.971725,376.794495 128.919434,376.855774 
z"/>
<path fill="#C2C6C3" opacity="1.000000" stroke="none" 
	d="
M212.921722,173.199310 
	C213.044678,173.131378 213.104004,173.572937 213.022736,173.656464 
	C212.725647,173.633286 212.678085,173.475708 212.921722,173.199310 
z"/>
<path fill="#E0E3E3" opacity="1.000000" stroke="none" 
	d="
M198.110947,251.855179 
	C197.986542,251.929596 198.044113,251.487030 198.087631,251.384277 
	C198.339462,251.411575 198.374191,251.577988 198.110947,251.855179 
z"/>
<path fill="#E0E3E3" opacity="1.000000" stroke="none" 
	d="
M183.861847,249.086945 
	C184.010147,249.164551 183.994553,249.338043 183.888687,249.628464 
	C183.619904,249.594208 183.586426,249.406693 183.861847,249.086945 
z"/>
<path fill="#8E8F8E" opacity="1.000000" stroke="none" 
	d="
M124.914581,381.742706 
	C124.993546,381.811646 124.939331,381.940735 124.904297,381.950684 
	C124.869255,381.960632 124.835625,381.673767 124.914581,381.742706 
z"/>
<path fill="#D6D7D5" opacity="1.000000" stroke="none" 
	d="
M167.927307,303.427124 
	C168.029831,303.431122 168.046951,303.520782 168.028168,303.536743 
	C168.009384,303.552704 167.824799,303.423126 167.927307,303.427124 
z"/>
<path fill="#969998" opacity="1.000000" stroke="none" 
	d="
M172.894867,384.392426 
	C173.038162,384.374786 172.791962,384.786469 172.691284,384.851013 
	C172.502686,384.701965 172.556351,384.533478 172.894867,384.392426 
z"/>
<path fill="#D6D7D5" opacity="1.000000" stroke="none" 
	d="
M249.594894,50.277359 
	C248.701859,49.645134 248.562958,49.033386 250.172989,49.381897 
	C250.215622,49.754951 250.043808,49.910881 249.594894,50.277359 
z"/>
<path fill="#E7E9E6" opacity="1.000000" stroke="none" 
	d="
M216.679932,239.808044 
	C216.696274,239.997284 216.464966,240.159958 216.122238,240.184799 
	C216.010803,240.046967 216.432281,239.781479 216.679932,239.808044 
z"/>
<path fill="#E0E3E3" opacity="1.000000" stroke="none" 
	d="
M195.125595,261.879639 
	C194.982666,261.795685 195.004868,261.631012 195.114929,261.358032 
	C195.376038,261.399384 195.405365,261.582458 195.125595,261.879639 
z"/>
<path fill="#919594" opacity="1.000000" stroke="none" 
	d="
M240.949860,196.744324 
	C240.731995,196.809021 240.584274,196.645966 240.489777,196.456390 
	C240.463287,196.403259 240.593582,196.271973 240.798584,196.091644 
	C240.976837,196.173340 241.008484,196.339935 240.949860,196.744324 
z"/>
<path fill="#A6AAAB" opacity="1.000000" stroke="none" 
	d="
M210.098389,211.208221 
	C209.960846,211.111771 209.945312,211.057159 209.955780,211.030975 
	C209.966263,211.004807 210.382355,211.075592 210.585999,211.023193 
	C210.665756,211.182709 210.481186,211.294006 210.098389,211.208221 
z"/>
<path fill="#E0E3E3" opacity="1.000000" stroke="none" 
	d="
M217.676819,217.570648 
	C217.675934,217.817047 217.453232,217.916565 217.013428,217.939606 
	C216.968521,217.668991 217.188080,217.522552 217.676819,217.570648 
z"/>
<path fill="#E0E3E3" opacity="1.000000" stroke="none" 
	d="
M212.560837,218.831375 
	C212.649979,218.926941 212.274460,219.018539 212.177887,219.017120 
	C212.128113,218.805832 212.258240,218.712540 212.560837,218.831375 
z"/>
<path fill="#E0E3E3" opacity="1.000000" stroke="none" 
	d="
M208.518539,219.881210 
	C208.581100,219.974960 208.294144,220.040482 208.220795,220.040787 
	C208.147461,220.041092 208.455978,219.787460 208.518539,219.881210 
z"/>
<path fill="#AEB3B1" opacity="1.000000" stroke="none" 
	d="
M295.164001,219.913605 
	C294.986511,219.777344 295.041992,219.546036 295.312073,219.210602 
	C295.531097,219.347656 295.487854,219.585007 295.164001,219.913605 
z"/>
<path fill="#E0E3E3" opacity="1.000000" stroke="none" 
	d="
M207.746399,220.004852 
	C207.748856,220.190323 207.495590,220.319748 207.134460,220.320099 
	C207.181305,220.110291 207.335999,220.029541 207.746399,220.004852 
z"/>
<path fill="#D6D7D5" opacity="1.000000" stroke="none" 
	d="
M318.028473,221.372406 
	C318.093109,221.312943 318.059998,221.338470 318.034698,221.347626 
	C318.009399,221.356796 317.963837,221.431870 318.028473,221.372406 
z"/>
<path fill="#C7CAC9" opacity="1.000000" stroke="none" 
	d="
M218.093597,263.174866 
	C218.093109,263.096008 218.108307,263.222687 218.083649,263.249329 
	C218.059006,263.276001 218.094101,263.253693 218.093597,263.174866 
z"/>
<path fill="#AEB3B1" opacity="1.000000" stroke="none" 
	d="
M228.909180,154.172333 
	C229.020630,154.239731 229.025909,154.408249 228.995590,154.827087 
	C228.742813,154.855789 228.690475,154.587799 228.909180,154.172333 
z"/>
<path fill="#C7CAC9" opacity="1.000000" stroke="none" 
	d="
M220.194427,261.492310 
	C220.052353,261.218872 220.216187,261.033081 220.693848,260.957275 
	C220.819504,261.232208 220.650391,261.403076 220.194427,261.492310 
z"/>
<path fill="#A0A3A2" opacity="1.000000" stroke="none" 
	d="
M260.114288,152.856125 
	C259.999176,152.781570 259.999664,152.591354 260.037842,152.117981 
	C260.311005,152.093796 260.362488,152.395676 260.114288,152.856125 
z"/>
<path fill="#E0E3E3" opacity="1.000000" stroke="none" 
	d="
M200.093994,244.827942 
	C199.972458,244.892746 200.026596,244.493179 200.060486,244.398041 
	C200.307571,244.410614 200.347946,244.564041 200.093994,244.827942 
z"/>
<path fill="#B5B8B6" opacity="1.000000" stroke="none" 
	d="
M293.435730,341.753723 
	C293.496368,341.416901 293.800018,341.309479 294.579285,341.117310 
	C294.947815,341.858551 294.466003,342.141937 293.435730,341.753723 
z"/>
<path fill="#E0E3E3" opacity="1.000000" stroke="none" 
	d="
M196.092316,258.814758 
	C195.978989,258.875580 196.027588,258.498474 196.061249,258.409668 
	C196.289841,258.424652 196.326767,258.569031 196.092316,258.814758 
z"/>
<path fill="#E0E3E3" opacity="1.000000" stroke="none" 
	d="
M181.931747,256.236877 
	C182.034515,256.200348 182.000412,256.478119 181.978043,256.544250 
	C181.955673,256.610382 181.828979,256.273407 181.931747,256.236877 
z"/>
<path fill="#E0E3E3" opacity="1.000000" stroke="none" 
	d="
M182.892670,253.136230 
	C183.008759,253.053055 182.952026,253.515015 182.906326,253.622086 
	C182.678818,253.584702 182.650803,253.414780 182.892670,253.136230 
z"/>
<path fill="#919594" opacity="1.000000" stroke="none" 
	d="
M247.890930,169.145050 
	C248.018478,169.220947 248.025711,169.402344 247.984772,169.851959 
	C247.687744,169.879593 247.632431,169.589722 247.890930,169.145050 
z"/>
<path fill="#AEB3B1" opacity="1.000000" stroke="none" 
	d="
M194.092773,346.833679 
	C193.980026,346.903137 193.995682,346.503967 194.036682,346.412231 
	C194.281540,346.421844 194.324142,346.569763 194.092773,346.833679 
z"/>
<path fill="#A0A3A2" opacity="1.000000" stroke="none" 
	d="
M258.089813,169.749298 
	C257.854370,169.822601 257.684265,169.654068 257.561096,169.456299 
	C257.535919,169.415817 257.686859,169.265656 257.915222,169.070999 
	C258.106445,169.149658 258.139099,169.323395 258.089813,169.749298 
z"/>
<path fill="#969998" opacity="1.000000" stroke="none" 
	d="
M223.091370,170.468140 
	C222.940155,170.447433 222.944733,170.064545 223.049744,170.046082 
	C223.154755,170.027603 223.388916,170.221985 223.388916,170.221985 
	C223.388916,170.221985 223.242569,170.488831 223.091370,170.468140 
z"/>
<path fill="#AEB3B1" opacity="1.000000" stroke="none" 
	d="
M190.386292,352.144348 
	C190.333710,352.051239 190.554977,351.941956 190.617126,351.940613 
	C190.679291,351.939270 190.438889,352.237488 190.386292,352.144348 
z"/>
<path fill="#AEB3B1" opacity="1.000000" stroke="none" 
	d="
M186.787170,353.239014 
	C186.832550,353.098022 187.023682,353.048828 187.509186,352.972443 
	C187.513351,353.073792 187.223129,353.202332 186.787170,353.239014 
z"/>
<path fill="#D6D7D5" opacity="1.000000" stroke="none" 
	d="
M194.015503,287.593018 
	C192.938446,288.715912 192.302155,290.528107 190.432205,288.950348 
	C187.606384,286.565979 184.604874,284.389832 181.342560,282.065063 
	C180.698792,279.040527 181.668671,276.297638 182.742706,273.265167 
	C187.992371,274.237518 189.818909,279.488678 194.146683,281.739136 
	C196.086380,282.747803 193.998322,285.331940 194.015503,287.593018 
z"/>
<path fill="#141920" opacity="1.000000" stroke="none" 
	d="
M236.835419,170.299240 
	C236.506927,170.698700 236.213882,170.623840 235.718628,170.414001 
	C233.533371,166.267471 234.189301,162.043793 234.842773,157.404938 
	C234.940186,155.681366 235.079178,154.371063 235.168732,152.667633 
	C235.209641,152.098862 235.300003,151.923233 235.347733,151.454391 
	C235.650375,147.777267 236.473236,144.587265 239.758240,142.843399 
	C249.833130,137.495087 251.829681,128.167038 251.833115,118.022377 
	C251.834274,114.629471 253.532913,111.237282 251.588684,107.658371 
	C250.701797,106.691208 250.144318,105.909447 249.349640,104.962219 
	C248.735458,101.657455 249.441452,99.019035 252.748657,97.225418 
	C257.540192,96.901596 260.623596,98.454712 260.467529,103.978531 
	C252.838593,111.385193 256.160553,121.203606 254.176025,129.694443 
	C253.803177,131.289703 253.846481,132.982208 253.499268,134.983307 
	C253.300781,135.336777 253.288498,135.434738 253.310852,135.478760 
	C253.704269,137.135635 252.134811,136.987610 251.125336,137.740753 
	C250.822647,137.859131 250.956223,137.914841 250.905502,137.863220 
	C250.582855,138.695755 250.084015,139.380753 248.857056,139.750702 
	C239.362671,144.540131 237.625092,152.901581 237.688812,162.586273 
	C237.417267,165.330368 237.133255,167.620026 236.835419,170.299240 
z"/>
<path fill="#D6D7D5" opacity="1.000000" stroke="none" 
	d="
M306.537170,245.476959 
	C306.560760,245.520447 306.513550,245.433456 306.537170,245.476959 
z"/>
<path fill="#BABDBB" opacity="1.000000" stroke="none" 
	d="
M309.521606,306.537323 
	C309.479462,306.560120 309.563721,306.514526 309.521606,306.537323 
z"/>
<path fill="#141920" opacity="1.000000" stroke="none" 
	d="
M192.858292,298.370911 
	C193.641937,294.952209 194.431976,291.913452 195.229034,288.482208 
	C196.310242,284.852753 197.331741,281.596741 198.491364,278.390717 
	C198.830963,277.451813 198.964432,275.975922 200.747787,276.575378 
	C202.305450,277.099060 202.120422,278.143951 201.784500,279.321838 
	C200.843750,282.620667 199.912231,285.922119 198.994263,289.611023 
	C199.425018,290.661896 199.499710,291.385712 199.356567,292.510529 
	C198.805710,294.516479 198.532700,296.252197 196.985077,297.740784 
	C195.311066,301.193909 194.071671,304.525269 193.758148,308.529114 
	C192.880371,311.738373 192.073380,314.560455 191.115005,317.330109 
	C190.334137,319.586823 189.967484,321.538727 191.940201,323.569977 
	C193.429092,325.102997 193.145325,327.215637 192.051239,329.450775 
	C186.641785,333.255615 184.346466,332.776184 181.235992,327.297058 
	C181.415115,324.304535 182.019287,321.723785 185.069473,320.818542 
	C187.094467,320.217529 187.174652,318.415466 187.625519,316.895996 
	C189.416351,310.860809 191.125366,304.801361 192.858292,298.370911 
z"/>
<path fill="#CDD0CD" opacity="1.000000" stroke="none" 
	d="
M198.583527,292.289124 
	C198.394226,291.486450 198.522644,290.957245 198.831253,290.213806 
	C200.141174,290.062653 201.387695,289.873993 201.935379,291.664551 
	C201.997803,292.002441 202.000000,292.000000 202.001221,291.998779 
	C201.079376,292.793243 200.056152,293.039307 198.583527,292.289124 
z"/>
<path fill="#C2C6C3" opacity="1.000000" stroke="none" 
	d="
M191.999695,333.999390 
	C191.705780,334.490112 191.412155,334.981445 191.118515,335.472778 
	C190.918930,335.301849 190.719360,335.130890 190.519775,334.959930 
	C190.831436,334.666534 191.143082,334.373169 191.727661,334.040466 
	C192.000610,334.001160 192.000000,334.000000 191.999695,333.999390 
z"/>
<path fill="#CDD0CD" opacity="1.000000" stroke="none" 
	d="
M319.987183,285.330170 
	C320.614685,285.095612 321.377838,285.143585 321.447693,285.933746 
	C321.473694,286.227783 320.902557,286.574646 320.317352,286.936401 
	C320.020172,286.536713 320.009369,286.098053 319.987183,285.330170 
z"/>
<path fill="#A6AAAB" opacity="1.000000" stroke="none" 
	d="
M251.214478,137.891586 
	C251.489822,137.153595 252.156998,136.448044 253.078690,135.632660 
	C254.177872,137.344666 253.216949,137.867981 251.214478,137.891586 
z"/>
<path fill="#919594" opacity="1.000000" stroke="none" 
	d="
M255.645828,159.573776 
	C256.388519,159.365311 256.656464,159.625565 256.541504,160.201355 
	C256.517609,160.321014 256.347931,160.481857 256.226959,160.499954 
	C255.644562,160.587082 255.401855,160.303116 255.645828,159.573776 
z"/>
<path fill="#A6AAAB" opacity="1.000000" stroke="none" 
	d="
M248.902557,139.852936 
	C249.108490,139.198120 249.687775,138.609344 250.560928,137.916092 
	C250.739349,138.407379 250.623917,139.003159 250.269516,139.796219 
	C249.779022,139.968658 249.527481,139.943817 248.902557,139.852936 
z"/>
<path fill="#AEB3B1" opacity="1.000000" stroke="none" 
	d="
M235.218414,151.334106 
	C235.533005,151.401459 235.564346,151.665146 235.259216,152.113373 
	C235.048172,152.017441 235.052322,151.761612 235.218414,151.334106 
z"/>
<path fill="#D9DCDA" opacity="1.000000" stroke="none" 
	d="
M198.117065,292.367310 
	C199.262161,292.010254 200.258545,292.004913 201.628677,291.998535 
	C201.173416,294.516846 200.284363,296.989014 197.015869,297.885803 
	C197.088562,296.166504 197.528458,294.442749 198.117065,292.367310 
z"/>
<path fill="#B5B8B6" opacity="1.000000" stroke="none" 
	d="
M238.481720,166.462616 
	C238.523911,166.439667 238.439545,166.485550 238.481720,166.462616 
z"/>
<path fill="#A0A3A2" opacity="1.000000" stroke="none" 
	d="
M157.831360,352.063049 
	C157.991547,352.142975 157.991547,352.331512 157.984665,352.803772 
	C157.816879,352.896332 157.633865,352.718201 157.509354,352.505737 
	C157.474579,352.446381 157.612488,352.285797 157.831360,352.063049 
z"/>
<path fill="#CDD0CD" opacity="1.000000" stroke="none" 
	d="
M168.986755,320.638794 
	C166.928177,320.411621 166.233887,319.549377 168.736908,318.085785 
	C169.048401,318.786957 169.026291,319.527466 168.986755,320.638794 
z"/>
<path fill="#C2C6C3" opacity="1.000000" stroke="none" 
	d="
M162.692520,340.029877 
	C162.809738,340.540985 162.645081,341.092896 162.246140,341.823669 
	C160.993835,341.121002 161.205902,340.493378 162.692520,340.029877 
z"/>
<path fill="#919594" opacity="1.000000" stroke="none" 
	d="
M236.573120,193.689850 
	C238.841522,193.003693 239.011597,194.209076 238.760818,195.694519 
	C238.636322,196.432007 238.022293,196.849411 237.347351,196.680786 
	C235.785141,196.290497 236.036270,195.099380 236.573120,193.689850 
z"/>
<path fill="#AEB3B1" opacity="1.000000" stroke="none" 
	d="
M252.481583,101.488655 
	C254.255341,99.563850 255.858276,99.266754 256.960663,101.481651 
	C257.668518,102.903839 257.390106,104.594498 255.624390,105.058884 
	C253.046341,105.736900 252.071793,104.283829 252.481583,101.488655 
z"/>
<path fill="#A0A3A2" opacity="1.000000" stroke="none" 
	d="
M189.574646,326.978577 
	C188.066650,329.607483 186.352463,329.699524 184.717117,327.694122 
	C183.540070,326.250732 184.037704,324.667267 185.643082,323.995850 
	C188.008026,323.006805 189.493698,323.966309 189.574646,326.978577 
z"/>
</svg>