<svg version="1.1" id="Layer_1" xmlns="http://www.w3.org/2000/svg" xmlns:xlink="http://www.w3.org/1999/xlink" x="0px" y="0px"
	 width="100%" viewBox="0 0 905 170" enable-background="new 0 0 905 170" xml:space="preserve">
<path fill="#010101" opacity="1.000000" stroke="none" 
	d="
M856.000000,171.000000 
	C570.732849,171.000000 285.965729,171.000000 1.099292,171.000000 
	C1.099292,114.412849 1.099292,57.825474 1.099292,1.119046 
	C302.666626,1.119046 604.333313,1.119046 905.994019,1.119046 
	C905.994019,57.700981 905.994019,114.350494 905.991028,171.000000 
	C889.492004,171.000000 872.996033,171.000000 856.000000,171.000000 
M579.810059,81.892395 
	C579.928833,80.189980 580.047607,78.487572 580.206360,76.212418 
	C598.835571,93.711571 616.892151,110.684357 634.976562,127.627396 
	C635.916870,128.508331 637.072815,129.741135 638.165405,129.780411 
	C644.080505,129.993073 650.007324,129.881271 656.051697,129.881271 
	C656.051697,102.898041 656.051697,76.671234 656.051697,50.376877 
	C649.445068,50.376877 643.029541,50.376877 636.184387,50.376877 
	C636.184387,68.186493 636.184387,85.725067 636.184387,104.294395 
	C617.667847,86.674210 599.911072,69.748871 582.095886,52.885311 
	C580.859497,51.714977 579.227600,50.289028 577.712585,50.206158 
	C571.953430,49.891155 566.166748,50.079193 560.241455,50.079193 
	C560.241455,77.021858 560.241455,103.352463 560.241455,129.566010 
	C566.970520,129.566010 573.210144,129.566010 579.804688,129.566010 
	C579.804688,113.731972 579.804688,98.266045 579.810059,81.892395 
M235.640640,99.696724 
	C241.081039,99.696724 246.521439,99.696724 252.346222,99.696724 
	C252.346222,102.732735 252.708374,105.429092 252.221252,107.962143 
	C251.886047,109.705223 250.737473,112.138092 249.330276,112.697418 
	C235.827271,118.064568 222.245377,118.706100 209.005585,111.833603 
	C198.914429,106.595467 193.989929,93.400826 197.827011,82.700577 
	C202.092667,70.805176 212.985794,64.023361 228.229416,63.832680 
	C239.077591,63.696980 249.032349,66.683495 258.071106,72.938599 
	C261.873749,68.609329 265.458832,64.527718 269.108551,60.372555 
	C268.500793,59.810772 268.195740,59.406773 267.792084,59.173138 
	C244.496902,45.689301 220.536972,44.128452 196.309128,56.131451 
	C183.133652,62.658871 175.890030,74.043579 175.305405,88.677139 
	C174.687653,104.140045 180.946381,116.763588 195.035629,124.013382 
	C217.449112,135.546524 240.301620,134.000107 263.245209,125.061340 
	C269.735291,122.532814 272.926575,119.104301 272.043488,111.566635 
	C271.177368,104.173607 271.858856,96.601303 271.814758,89.107948 
	C271.807373,87.851959 271.564484,86.597359 271.438599,85.418854 
	C256.739075,85.418854 242.470078,85.418854 227.866913,85.418854 
	C227.866913,90.234550 227.866913,94.816826 227.866913,99.710350 
	C230.399765,99.710350 232.542770,99.710350 235.640640,99.696724 
M874.122253,115.046829 
	C854.878784,115.046829 835.635254,115.046829 816.278809,115.046829 
	C816.278809,108.434280 816.278809,102.543167 816.278809,96.312866 
	C832.612915,96.312866 848.567688,96.312866 864.537903,96.312866 
	C864.537903,91.241913 864.537903,86.521706 864.537903,81.491623 
	C848.295715,81.491623 832.370422,81.491623 816.195862,81.491623 
	C816.195862,75.934738 816.195862,70.698593 816.195862,64.950836 
	C836.057556,64.950836 855.625793,64.950836 875.354614,64.950836 
	C875.354614,59.716515 875.354614,54.998753 875.354614,50.362114 
	C848.757324,50.362114 822.507996,50.362114 796.078003,50.362114 
	C796.078003,76.984596 796.078003,103.325241 796.078003,129.618317 
	C823.346985,129.618317 850.228333,129.618317 877.377014,129.618317 
	C877.377014,125.468430 877.532104,121.636703 877.270203,117.833687 
	C877.203064,116.858643 875.819519,115.974251 874.122253,115.046829 
M84.718559,101.575829 
	C86.245941,103.722961 89.191605,106.059372 88.936790,107.968651 
	C88.627769,110.283981 85.938934,113.551292 83.711823,114.099564 
	C77.393097,115.655144 70.749939,116.932281 64.298813,116.679382 
	C53.221233,116.245117 42.666409,112.984818 32.916447,107.062317 
	C29.817089,111.514351 26.912966,115.685944 23.877966,120.045532 
	C24.709969,120.701859 25.283703,121.290184 25.970949,121.676651 
	C41.407192,130.357040 58.231834,132.844040 75.532822,131.672119 
	C85.033600,131.028580 94.523193,129.334793 102.527847,123.022034 
	C112.335312,115.287521 112.816673,99.668137 103.260269,91.729553 
	C95.645691,85.404068 86.344009,83.869141 77.092461,82.113144 
	C68.367889,80.457161 59.572811,79.094955 50.960079,76.985603 
	C48.966522,76.497368 46.158787,73.387177 46.288620,71.678207 
	C46.451439,69.535027 48.875259,66.585548 51.002502,65.781761 
	C54.925957,64.299271 59.323128,63.704308 63.560871,63.489952 
	C75.246277,62.898872 86.148361,66.133850 96.701202,71.495758 
	C99.793793,67.146774 102.745415,62.996021 105.901840,58.557262 
	C103.317993,57.256004 101.225227,55.734688 98.892395,55.110176 
	C90.000092,52.729687 81.136963,49.668537 72.064041,48.671333 
	C59.158951,47.252941 46.342651,48.664684 34.825840,55.804947 
	C23.857292,62.605293 22.523876,78.679016 32.498394,86.829514 
	C39.683006,92.700294 48.605278,94.210106 57.374088,95.947014 
	C66.259514,97.707024 75.152832,99.427231 84.718559,101.575829 
M491.429474,50.080040 
	C489.099121,50.086735 486.736755,50.342255 484.445251,50.047195 
	C479.975372,49.471630 477.337646,51.007034 475.090057,55.166016 
	C463.984192,75.716690 452.502625,96.064240 441.168884,116.491928 
	C438.801819,120.758316 436.499542,125.060661 433.849945,129.929825 
	C436.555328,129.929825 438.435547,129.634201 440.190643,129.977676 
	C451.815826,132.252731 459.404510,128.069534 463.016815,116.554306 
	C463.446777,115.183647 466.091125,113.706932 467.752594,113.654343 
	C477.897095,113.333244 488.165497,114.326950 498.177765,113.112045 
	C509.708099,111.712952 516.767273,115.443275 519.924988,126.571564 
	C520.102966,127.198921 520.437805,127.824600 520.847046,128.332321 
	C521.321960,128.921631 521.953186,129.819458 522.527710,129.827866 
	C529.549683,129.930740 536.573669,129.894775 544.360107,129.894775 
	C530.540894,104.955956 517.094421,81.081276 504.115540,56.955032 
	C501.338165,51.792183 498.437439,48.752468 491.429474,50.080040 
M683.151001,73.710304 
	C674.010193,95.645287 682.624512,117.049416 704.186523,126.420334 
	C719.945984,133.269470 736.051636,132.990341 752.398132,129.314362 
	C760.918335,127.398354 768.282593,123.300896 774.015076,118.632874 
	C770.151245,114.280022 766.540894,110.212753 762.971497,106.191643 
	C748.689758,116.673523 733.291565,119.411102 716.799927,113.243729 
	C702.549255,107.914429 697.016296,92.988884 703.414795,79.233719 
	C708.560730,68.171410 724.811951,62.573673 737.736267,64.116333 
	C746.821350,65.200729 755.131165,67.979546 762.270874,73.648094 
	C766.313782,69.296028 770.094910,65.225685 773.822693,61.212814 
	C762.469299,53.415535 759.591858,51.363216 739.615112,49.069786 
	C716.873230,46.458912 696.399475,51.586288 683.151001,73.710304 
M362.198975,50.101173 
	C356.940887,50.101173 351.682800,50.101173 346.375671,50.101173 
	C346.375671,77.058273 346.375671,103.294731 346.375671,129.551895 
	C372.323334,129.551895 398.013123,129.551895 423.651978,129.551895 
	C423.651978,124.555161 423.651978,119.959953 423.651978,114.849762 
	C404.501556,114.849762 385.613525,114.849762 366.436523,114.849762 
	C366.436523,112.672951 366.434814,111.021194 366.436829,109.369446 
	C366.459229,91.050026 366.471436,72.730576 366.517944,54.411217 
	C366.524017,52.015694 366.867371,49.494896 362.198975,50.101173 
M297.421875,109.499405 
	C297.421875,116.249992 297.421875,123.000572 297.421875,129.558533 
	C304.522522,129.558533 310.929840,129.558533 317.403320,129.558533 
	C317.403320,102.966393 317.403320,76.737312 317.403320,50.382744 
	C310.677124,50.382744 304.273407,50.382744 297.419434,50.382744 
	C297.419434,69.926788 297.419434,89.213173 297.421875,109.499405 
M152.400162,84.902992 
	C152.400162,73.395943 152.400162,61.888889 152.400162,50.449356 
	C145.018173,50.449356 138.630707,50.449356 132.051849,50.449356 
	C132.051849,63.949471 132.051849,77.080246 132.051849,90.211021 
	C132.051849,103.298744 132.051849,116.386475 132.051849,129.694244 
	C138.986511,129.694244 145.399857,129.694244 152.277222,129.694244 
	C152.277222,114.894119 152.277222,100.308159 152.400162,84.902992 
M143.470978,42.984348 
	C146.336487,42.984348 149.201996,42.984348 152.067505,42.984348 
	C152.037155,42.457756 152.006805,41.931160 151.976440,41.404568 
	C145.374725,41.404568 138.773010,41.404568 132.171310,41.404568 
	C132.157501,41.930439 132.143707,42.456306 132.129898,42.982178 
	C135.584488,42.982178 139.039078,42.982178 143.470978,42.984348 
z"/>
<path fill="#F9F9FA" opacity="1.000000" stroke="none" 
	d="
M579.807373,82.346260 
	C579.804688,98.266045 579.804688,113.731972 579.804688,129.566010 
	C573.210144,129.566010 566.970520,129.566010 560.241455,129.566010 
	C560.241455,103.352463 560.241455,77.021858 560.241455,50.079193 
	C566.166748,50.079193 571.953430,49.891155 577.712585,50.206158 
	C579.227600,50.289028 580.859497,51.714977 582.095886,52.885311 
	C599.911072,69.748871 617.667847,86.674210 636.184387,104.294395 
	C636.184387,85.725067 636.184387,68.186493 636.184387,50.376877 
	C643.029541,50.376877 649.445068,50.376877 656.051697,50.376877 
	C656.051697,76.671234 656.051697,102.898041 656.051697,129.881271 
	C650.007324,129.881271 644.080505,129.993073 638.165405,129.780411 
	C637.072815,129.741135 635.916870,128.508331 634.976562,127.627396 
	C616.892151,110.684357 598.835571,93.711571 580.206360,76.212418 
	C580.047607,78.487572 579.928833,80.189980 579.807373,82.346260 
z"/>
<path fill="#F7F7F7" opacity="1.000000" stroke="none" 
	d="
M235.163208,99.703537 
	C232.542770,99.710350 230.399765,99.710350 227.866913,99.710350 
	C227.866913,94.816826 227.866913,90.234550 227.866913,85.418854 
	C242.470078,85.418854 256.739075,85.418854 271.438599,85.418854 
	C271.564484,86.597359 271.807373,87.851959 271.814758,89.107948 
	C271.858856,96.601303 271.177368,104.173607 272.043488,111.566635 
	C272.926575,119.104301 269.735291,122.532814 263.245209,125.061340 
	C240.301620,134.000107 217.449112,135.546524 195.035629,124.013382 
	C180.946381,116.763588 174.687653,104.140045 175.305405,88.677139 
	C175.890030,74.043579 183.133652,62.658871 196.309128,56.131451 
	C220.536972,44.128452 244.496902,45.689301 267.792084,59.173138 
	C268.195740,59.406773 268.500793,59.810772 269.108551,60.372555 
	C265.458832,64.527718 261.873749,68.609329 258.071106,72.938599 
	C249.032349,66.683495 239.077591,63.696980 228.229416,63.832680 
	C212.985794,64.023361 202.092667,70.805176 197.827011,82.700577 
	C193.989929,93.400826 198.914429,106.595467 209.005585,111.833603 
	C222.245377,118.706100 235.827271,118.064568 249.330276,112.697418 
	C250.737473,112.138092 251.886047,109.705223 252.221252,107.962143 
	C252.708374,105.429092 252.346222,102.732735 252.346222,99.696724 
	C246.521439,99.696724 241.081039,99.696724 235.163208,99.703537 
z"/>
<path fill="#F9F9F9" opacity="1.000000" stroke="none" 
	d="
M874.581482,115.047516 
	C875.819519,115.974251 877.203064,116.858643 877.270203,117.833687 
	C877.532104,121.636703 877.377014,125.468430 877.377014,129.618317 
	C850.228333,129.618317 823.346985,129.618317 796.078003,129.618317 
	C796.078003,103.325241 796.078003,76.984596 796.078003,50.362114 
	C822.507996,50.362114 848.757324,50.362114 875.354614,50.362114 
	C875.354614,54.998753 875.354614,59.716515 875.354614,64.950836 
	C855.625793,64.950836 836.057556,64.950836 816.195862,64.950836 
	C816.195862,70.698593 816.195862,75.934738 816.195862,81.491623 
	C832.370422,81.491623 848.295715,81.491623 864.537903,81.491623 
	C864.537903,86.521706 864.537903,91.241913 864.537903,96.312866 
	C848.567688,96.312866 832.612915,96.312866 816.278809,96.312866 
	C816.278809,102.543167 816.278809,108.434280 816.278809,115.046829 
	C835.635254,115.046829 854.878784,115.046829 874.581482,115.047516 
z"/>
<path fill="#F8F8F8" opacity="1.000000" stroke="none" 
	d="
M84.380630,101.370346 
	C75.152832,99.427231 66.259514,97.707024 57.374088,95.947014 
	C48.605278,94.210106 39.683006,92.700294 32.498394,86.829514 
	C22.523876,78.679016 23.857292,62.605293 34.825840,55.804947 
	C46.342651,48.664684 59.158951,47.252941 72.064041,48.671333 
	C81.136963,49.668537 90.000092,52.729687 98.892395,55.110176 
	C101.225227,55.734688 103.317993,57.256004 105.901840,58.557262 
	C102.745415,62.996021 99.793793,67.146774 96.701202,71.495758 
	C86.148361,66.133850 75.246277,62.898872 63.560871,63.489952 
	C59.323128,63.704308 54.925957,64.299271 51.002502,65.781761 
	C48.875259,66.585548 46.451439,69.535027 46.288620,71.678207 
	C46.158787,73.387177 48.966522,76.497368 50.960079,76.985603 
	C59.572811,79.094955 68.367889,80.457161 77.092461,82.113144 
	C86.344009,83.869141 95.645691,85.404068 103.260269,91.729553 
	C112.816673,99.668137 112.335312,115.287521 102.527847,123.022034 
	C94.523193,129.334793 85.033600,131.028580 75.532822,131.672119 
	C58.231834,132.844040 41.407192,130.357040 25.970949,121.676651 
	C25.283703,121.290184 24.709969,120.701859 23.877966,120.045532 
	C26.912966,115.685944 29.817089,111.514351 32.916447,107.062317 
	C42.666409,112.984818 53.221233,116.245117 64.298813,116.679382 
	C70.749939,116.932281 77.393097,115.655144 83.711823,114.099564 
	C85.938934,113.551292 88.627769,110.283981 88.936790,107.968651 
	C89.191605,106.059372 86.245941,103.722961 84.380630,101.370346 
z"/>
<path fill="#FAFAFA" opacity="1.000000" stroke="none" 
	d="
M491.909851,50.080177 
	C498.437439,48.752468 501.338165,51.792183 504.115540,56.955032 
	C517.094421,81.081276 530.540894,104.955956 544.360107,129.894775 
	C536.573669,129.894775 529.549683,129.930740 522.527710,129.827866 
	C521.953186,129.819458 521.321960,128.921631 520.847046,128.332321 
	C520.437805,127.824600 520.102966,127.198921 519.924988,126.571564 
	C516.767273,115.443275 509.708099,111.712952 498.177765,113.112045 
	C488.165497,114.326950 477.897095,113.333244 467.752594,113.654343 
	C466.091125,113.706932 463.446777,115.183647 463.016815,116.554306 
	C459.404510,128.069534 451.815826,132.252731 440.190643,129.977676 
	C438.435547,129.634201 436.555328,129.929825 433.849945,129.929825 
	C436.499542,125.060661 438.801819,120.758316 441.168884,116.491928 
	C452.502625,96.064240 463.984192,75.716690 475.090057,55.166016 
	C477.337646,51.007034 479.975372,49.471630 484.445251,50.047195 
	C486.736755,50.342255 489.099121,50.086735 491.909851,50.080177 
M483.154724,78.616714 
	C479.680573,85.137909 476.206421,91.659111 472.446289,98.717133 
	C483.706238,98.717133 494.151245,98.717133 505.387634,98.717133 
	C499.760468,88.312592 494.455414,78.503632 488.925842,68.279610 
	C487.784332,70.346092 486.997345,71.774551 486.206696,73.200935 
	C485.321136,74.798592 484.432220,76.394394 483.154724,78.616714 
z"/>
<path fill="#F8F8F8" opacity="1.000000" stroke="none" 
	d="
M683.263428,73.349152 
	C696.399475,51.586288 716.873230,46.458912 739.615112,49.069786 
	C759.591858,51.363216 762.469299,53.415535 773.822693,61.212814 
	C770.094910,65.225685 766.313782,69.296028 762.270874,73.648094 
	C755.131165,67.979546 746.821350,65.200729 737.736267,64.116333 
	C724.811951,62.573673 708.560730,68.171410 703.414795,79.233719 
	C697.016296,92.988884 702.549255,107.914429 716.799927,113.243729 
	C733.291565,119.411102 748.689758,116.673523 762.971497,106.191643 
	C766.540894,110.212753 770.151245,114.280022 774.015076,118.632874 
	C768.282593,123.300896 760.918335,127.398354 752.398132,129.314362 
	C736.051636,132.990341 719.945984,133.269470 704.186523,126.420334 
	C682.624512,117.049416 674.010193,95.645287 683.263428,73.349152 
z"/>
<path fill="#FAF9FA" opacity="1.000000" stroke="none" 
	d="
M362.665619,50.101517 
	C366.867371,49.494896 366.524017,52.015694 366.517944,54.411217 
	C366.471436,72.730576 366.459229,91.050026 366.436829,109.369446 
	C366.434814,111.021194 366.436523,112.672951 366.436523,114.849762 
	C385.613525,114.849762 404.501556,114.849762 423.651978,114.849762 
	C423.651978,119.959953 423.651978,124.555161 423.651978,129.551895 
	C398.013123,129.551895 372.323334,129.551895 346.375671,129.551895 
	C346.375671,103.294731 346.375671,77.058273 346.375671,50.101173 
	C351.682800,50.101173 356.940887,50.101173 362.665619,50.101517 
z"/>
<path fill="#F5F5F5" opacity="1.000000" stroke="none" 
	d="
M297.420654,108.999481 
	C297.419434,89.213173 297.419434,69.926788 297.419434,50.382744 
	C304.273407,50.382744 310.677124,50.382744 317.403320,50.382744 
	C317.403320,76.737312 317.403320,102.966393 317.403320,129.558533 
	C310.929840,129.558533 304.522522,129.558533 297.421875,129.558533 
	C297.421875,123.000572 297.421875,116.249992 297.420654,108.999481 
z"/>
<path fill="#F8F8F8" opacity="1.000000" stroke="none" 
	d="
M152.338684,85.312592 
	C152.277222,100.308159 152.277222,114.894119 152.277222,129.694244 
	C145.399857,129.694244 138.986511,129.694244 132.051849,129.694244 
	C132.051849,116.386475 132.051849,103.298744 132.051849,90.211021 
	C132.051849,77.080246 132.051849,63.949471 132.051849,50.449356 
	C138.630707,50.449356 145.018173,50.449356 152.400162,50.449356 
	C152.400162,61.888889 152.400162,73.395943 152.338684,85.312592 
z"/>
<path fill="#F1F1F1" opacity="1.000000" stroke="none" 
	d="
M142.982330,42.983261 
	C139.039078,42.982178 135.584488,42.982178 132.129898,42.982178 
	C132.143707,42.456306 132.157501,41.930439 132.171310,41.404568 
	C138.773010,41.404568 145.374725,41.404568 151.976440,41.404568 
	C152.006805,41.931160 152.037155,42.457756 152.067505,42.984348 
	C149.201996,42.984348 146.336487,42.984348 142.982330,42.983261 
z"/>
<path fill="#060606" opacity="1.000000" stroke="none" 
	d="
M483.349731,78.303864 
	C484.432220,76.394394 485.321136,74.798592 486.206696,73.200935 
	C486.997345,71.774551 487.784332,70.346092 488.925842,68.279610 
	C494.455414,78.503632 499.760468,88.312592 505.387634,98.717133 
	C494.151245,98.717133 483.706238,98.717133 472.446289,98.717133 
	C476.206421,91.659111 479.680573,85.137909 483.349731,78.303864 
z"/>
</svg>